<svg id="Layer_1" data-name="Layer 1" xmlns="http://www.w3.org/2000/svg" viewBox="0 0 93.56 122.88"><path d="M90.12 112.94l-11.7-2.1-5.81 10.39c-4.21 5.22-6.88-3.36-8.06-6.35l-11.29-21.3c2.6-.9 5.74-3.51 9-6.43 6.43.13 12.42-1 16.83-6.6l13 25.08 1.13 2.4c.88 3.13.42 5.2-3 4.91zm-86.68 0l11.7-2.1L21 121.23c4.21 5.22 6.88-3.36 8.06-6.35l11.24-21.3c-2.6-.9-5.74-3.51-9-6.43-6.43.13-12.42-1-16.83-6.6l-13 25.08L.39 108c-.89 3.13-.42 5.2 3.05 4.91zM70.5 8a6 6 0 012 1.26l5.72 5.28a6.59 6.59 0 011.4 1.89 5.7 5.7 0 01.56 2.33 6.18 6.18 0 01-.39 2.37 5.51 5.51 0 01-1.3 2l-.76.83a34.66 34.66 0 013 7h.55a5.88 5.88 0 012.37.38 6 6 0 012 1.27 5.8 5.8 0 011.37 1.91 6.16 6.16 0 01.55 2.29l.29 7.87A5.87 5.87 0 0186.3 49a6 6 0 01-1.94 1.41 6.2 6.2 0 01-2.33.52h-1.14a35.18 35.18 0 01-2.83 7l.41.36.11.11a5.9 5.9 0 011.33 1.94 6 6 0 01.52 2.29 6.16 6.16 0 01-.35 2.3 6.29 6.29 0 01-1.19 2l-.07.07-5.32 5.71a6.1 6.1 0 01-1.9 1.44 5.9 5.9 0 01-2.37.56 6.5 6.5 0 01-2.4-.39 5.59 5.59 0 01-2-1.3L64 72.2a34.45 34.45 0 01-6.89 2.92v.57a5.49 5.49 0 01-.39 2.36 5.64 5.64 0 01-1.26 2 5.66 5.66 0 01-1.91 1.37 6.12 6.12 0 01-2.28.56l-7.87.28a5.88 5.88 0 01-4.4-1.57 6.15 6.15 0 01-1.41-1.94 6.4 6.4 0 01-.59-2.33v-1.15a34.85 34.85 0 01-7-2.83l-.38.41-.1.11a5.75 5.75 0 01-1.94 1.33 6.26 6.26 0 01-4.58.17 6.52 6.52 0 01-2-1.19l-.07-.07-5.73-5.39a6.68 6.68 0 01-1.4-1.91 6 6 0 01-.56-2.33 6.61 6.61 0 01.39-2.36 6.46 6.46 0 011.3-2l.81-.87a35.39 35.39 0 01-2.92-6.9h-.56a5.49 5.49 0 01-2.36-.39 5.82 5.82 0 01-2-1.26 5.91 5.91 0 01-1.37-1.91 6.41 6.41 0 01-.55-2.29l-.29-7.87A6.47 6.47 0 016 35.36a6.41 6.41 0 011.26-2 6.15 6.15 0 011.94-1.44 6.4 6.4 0 012.33-.52h1.14a35.32 35.32 0 012.84-7l-.37-.4a5.6 5.6 0 01-1.41-1.94 5.86 5.86 0 01-.56-2.33 5.75 5.75 0 01.39-2.36 6.07 6.07 0 011.26-2l5.28-5.75A6.49 6.49 0 0122 8.18a5.85 5.85 0 012.33-.55 6.36 6.36 0 012.36.37 5.51 5.51 0 012 1.3l.89.82a35.12 35.12 0 016.87-2.92v-.6a5.64 5.64 0 01.39-2.36 6 6 0 011.26-2A5.73 5.73 0 0140 .85a6.17 6.17 0 012.28-.56L50.14 0a6.53 6.53 0 012.37.35 5.53 5.53 0 012 1.27A5.86 5.86 0 0156 3.55a6.4 6.4 0 01.52 2.33v1.14a35.37 35.37 0 017 2.83l.35-.37a5.57 5.57 0 011.94-1.4 5.78 5.78 0 012.33-.56 5.91 5.91 0 012.36.38V8zM37.83 35l5.69 5.36L54.94 28.7c1.13-1.15 1.84-2.06 3.23-.63l4.53 4.63c1.49 1.47 1.41 2.33 0 3.7L46.09 52.71c-3 2.9-2.44 3.08-5.43.11L30.2 42.42a1.32 1.32 0 01.13-2l5.25-5.44c.8-.82 1.43-.77 2.25 0zm3.9-19a25.64 25.64 0 11-20.08 30.21A25.65 25.65 0 0141.73 16z" fill-rule="evenodd"/></svg>