<svg version="1.1" id="Layer_1" xmlns="http://www.w3.org/2000/svg" x="0" y="0" viewBox="0 0 122.88 103.74" xml:space="preserve"><path d="M80.75 23.27l-5.49 9.51c12.78 16.46 14.41 32.95 4.9 49.42-5.93 10.28-14.62 16.93-26.07 19.98-11.42 3.06-22.28 1.61-32.54-4.31-10.23-5.9-16.89-14.56-19.96-25.99-3.09-11.44-1.7-22.24 4.18-32.42C15.04 23.4 30.16 16.54 51.1 18.85l5.49-9.51c3.05.13 6.45.92 10.22 2.33l.84-1.46c2.77-4.8 6.67-7.97 11.7-9.44C84.39-.72 89.07 0 93.7 2.46c18.21 9.66 2.63 28.12 16.64 37.46 1.84 1.22 4.73 1.74 8.43 1.9.54 0 1.19.21 1.88.61 2.15 1.24 2.73 2.72 1.74 4.44-1.05 1.82-3.25 2.71-6.61 2.62-3.35-.05-6.66-1.04-9.92-2.92-16.51-9.53-3.55-28.1-16.43-37.02-5.76-3.99-11.22-1.64-15.69 6.11 2.67 2.43 5 4.96 7.01 7.61z" fill-rule="evenodd" clip-rule="evenodd"/></svg>