<svg width="100" height="115" fill="none" xmlns="http://www.w3.org/2000/svg"><path fill-rule="evenodd" clip-rule="evenodd" d="M16.633 0h80.16v89.466c-.147 2.498-3.372 2.556-6.864 2.4H15.448c-11.653 0-11.648 15.682 0 15.682h77.69v-8.401L100 99.14v10.936a3.932 3.932 0 01-3.922 3.922H15.791C6.265 114.833 0 111.045 0 102.361V16.633C0 7.483 7.483 0 16.633 0zm51.03 43.027c1.417.058 2.422.528 3 1.41 1.573 2.36-.574 4.688-2.064 6.33l-15.902 14.47c-1.583 1.753-3.833 1.753-5.412 0L31.007 50.325c-1.399-1.572-3.127-3.713-1.67-5.889.592-.881 1.59-1.351 3.004-1.41h8.568V29.529a4.256 4.256 0 014.247-4.247h9.728c2.343 0 4.252 1.926 4.252 4.247v13.499h8.528z" fill="#000"/></svg>