<svg version="1.1" id="Layer_1" xmlns="http://www.w3.org/2000/svg" x="0" y="0" viewBox="0 0 110.43 123.94" xml:space="preserve"><path d="M78.37 79.91c-.19.47-.49.91-.88 1.3L73.5 85.2l-.02.02c-.39.39-.83.69-1.3.88-.49.21-1 .32-1.55.32s-1.07-.11-1.55-.32c-.47-.21-.9-.51-1.27-.9l-2.6-2.57c-.16.07-.32.16-.47.23-.44.21-.9.39-1.34.56-.02.02-.04.02-.07.02-.44.18-.91.33-1.42.49-.16.05-.32.11-.49.14v3.17c0 .55-.11 1.07-.3 1.55-.19.47-.49.9-.88 1.28l-.04.04c-.39.37-.83.67-1.3.86-.48.19-.99.3-1.51.3h-5.7c-.55 0-1.06-.11-1.55-.3a3.94 3.94 0 01-1.3-.88 3.94 3.94 0 01-.88-1.3c-.19-.48-.3-.99-.3-1.55v-3.62c-.18-.07-.35-.12-.53-.19-.47-.18-.93-.39-1.41-.6-.47-.23-.93-.44-1.37-.67-.14-.07-.28-.16-.42-.23L41.7 84.2l-.05.05c-.39.37-.83.65-1.3.84-.47.19-.98.28-1.51.28a4.012 4.012 0 01-2.81-1.11c-.02-.02-.04-.02-.04-.04l-3.98-4.03a3.872 3.872 0 01-1.22-2.85c0-.55.11-1.07.32-1.57.21-.49.51-.91.9-1.28l2.55-2.55c-.09-.18-.16-.33-.23-.49-.19-.44-.39-.9-.58-1.39-.18-.46-.35-.95-.49-1.44-.05-.16-.11-.33-.14-.49h-3.17c-.55 0-1.07-.11-1.55-.3-.47-.19-.9-.49-1.28-.88l-.04-.04c-.37-.39-.67-.83-.86-1.28-.19-.48-.3-.99-.3-1.51v-5.7c0-1.13.39-2.08 1.18-2.85.39-.39.83-.69 1.3-.88.48-.19.99-.3 1.55-.3h3.62c.07-.18.12-.35.19-.53.18-.47.39-.93.6-1.41.23-.48.44-.93.67-1.37.07-.14.16-.28.23-.42l-2.27-2.23-.05-.05c-.37-.39-.65-.83-.84-1.3-.19-.47-.28-.98-.28-1.51a4.012 4.012 0 011.11-2.81c.02-.02.02-.04.04-.04L37 38.73c.39-.39.83-.69 1.3-.88.49-.21 1-.32 1.55-.32s1.07.11 1.55.32c.47.21.9.51 1.27.9l2.55 2.55c.18-.09.33-.16.49-.23.44-.19.9-.39 1.39-.58.46-.18.95-.35 1.44-.49.18-.05.33-.11.49-.14v-3.17c0-.55.11-1.07.3-1.55.19-.47.49-.9.88-1.28l.04-.04c.39-.37.83-.67 1.28-.86.48-.19.99-.3 1.51-.3h5.7c.55 0 1.06.11 1.55.3.47.19.91.49 1.3.88s.69.83.88 1.3c.19.48.3.99.3 1.55v3.62c.18.07.35.12.53.19.47.18.93.39 1.41.6.47.23.93.44 1.37.67.14.07.28.16.42.23l2.23-2.23c.39-.39.83-.69 1.3-.9.49-.21 1-.32 1.55-.32s1.06.11 1.55.32c.49.21.91.49 1.3.9l3.99 3.99.02.02c.39.39.69.83.88 1.3.21.49.32 1 .32 1.55s-.11 1.07-.32 1.55c-.21.48-.51.9-.9 1.27l-2.55 2.6c.07.16.16.32.23.47.18.4.37.84.56 1.32.02.02.02.04.02.07.18.46.35.95.49 1.44.05.16.11.33.14.49h3.17c.55 0 1.07.11 1.55.3.47.19.9.49 1.28.88l.04.04c.37.39.67.83.86 1.28.19.48.3.99.3 1.51v5.7c0 .55-.11 1.06-.3 1.55-.19.47-.49.91-.88 1.32-.39.39-.83.69-1.3.88-.48.19-.99.3-1.55.3h-3.62c-.07.18-.12.35-.19.53-.18.47-.37.93-.6 1.41-.23.47-.44.93-.67 1.37-.07.14-.16.28-.23.42l2.23 2.23c.39.39.69.83.9 1.3.21.49.32 1 .32 1.55s-.11 1.06-.32 1.55l.07-.05h0zM44.99 116c-12.7-2.39-23.86-9.16-31.85-18.67C5.09 87.76.25 75.43.25 61.99c0-12.63 4.27-24.28 11.46-33.57 7.33-9.49 17.7-16.52 29.66-19.62l1.78 6.86c-10.41 2.7-19.44 8.82-25.83 17.09-6.24 8.08-9.95 18.22-9.95 29.24 0 11.73 4.21 22.47 11.19 30.78 6.68 7.95 15.91 13.7 26.44 15.98v-7.33l13.39 10.99L45 123.4l-.01-7.4h0zM65.44 7.99c12.58 2.37 23.65 9.03 31.63 18.41 8.17 9.6 13.1 22.03 13.1 35.59 0 11.93-3.8 22.97-10.26 31.98a55.103 55.103 0 01-27.06 20.08l-1.14-3.36-1.14-3.36c.28-.09.56-.19.83-.29 9.21-3.31 17.11-9.38 22.72-17.2A47.615 47.615 0 00103.05 62c0-11.84-4.28-22.67-11.38-31.01C85 23.15 75.85 17.5 65.43 15.23v7.29l-13.38-11L65.44.53v7.46h0zm-.28 53.98c0 .69-.07 1.35-.19 1.99h-.02c-.12.65-.32 1.27-.56 1.86-.26.62-.56 1.2-.91 1.71-.33.53-.74 1.02-1.18 1.46-.46.46-.93.84-1.46 1.2-.51.33-1.09.65-1.71.91-.02.02-.05.02-.07.04-.56.23-1.16.4-1.78.53-.65.12-1.3.19-1.99.19s-1.35-.07-1.99-.19c-.65-.12-1.27-.32-1.86-.56-.62-.26-1.2-.56-1.71-.91-.53-.35-1.02-.76-1.46-1.2-.44-.46-.83-.93-1.18-1.46-.33-.51-.65-1.09-.91-1.71-.02-.02-.02-.05-.04-.07-.23-.56-.4-1.16-.53-1.78-.12-.65-.19-1.3-.19-1.99s.07-1.35.19-1.99c.12-.65.32-1.27.56-1.86.26-.62.56-1.2.91-1.71.33-.53.74-1.02 1.18-1.46.46-.46.93-.84 1.46-1.2.51-.33 1.09-.65 1.71-.92.02-.02.05-.02.07-.04.58-.23 1.18-.4 1.79-.53.65-.12 1.3-.19 1.99-.19s1.35.07 1.99.19c.65.12 1.27.32 1.86.56.62.26 1.2.56 1.71.92.53.35 1.02.76 1.46 1.2.44.46.83.93 1.18 1.46.33.51.65 1.09.91 1.71.02.02.02.05.04.07a10.198 10.198 0 01.73 3.77h0z" fill-rule="evenodd" clip-rule="evenodd" stroke="#000" stroke-width=".5" stroke-miterlimit="2.613"/></svg>