<svg id="Layer_1" data-name="Layer 1" xmlns="http://www.w3.org/2000/svg" viewBox="0 0 122.88 122.88"><path d="M73.48 15.84A46.87 46.87 0 0184.87 21L91 14.84a7.6 7.6 0 0110.72 0l6.28 6.31a7.6 7.6 0 010 10.72l-6.6 6.6a46.6 46.6 0 014.34 10.93h9.52a7.6 7.6 0 017.62 7.6v8.9a7.6 7.6 0 01-7.58 7.58h-9.61a46.83 46.83 0 01-4.37 10.81L108 91a7.6 7.6 0 010 10.72l-6.27 6.28A7.61 7.61 0 0191 108l-6.34-6.35a47.22 47.22 0 01-11.19 5v8.59a7.6 7.6 0 01-7.58 7.58H57a7.6 7.6 0 01-7.58-7.58v-7.76a47.39 47.39 0 01-12.35-4.68l-5.2 5.2a7.62 7.62 0 01-10.72 0l-6.31-6.31a7.61 7.61 0 010-10.72l4.72-4.72A47.38 47.38 0 0114 73.48H7.58A7.6 7.6 0 010 65.9V57a7.6 7.6 0 017.58-7.6h6.35a47.2 47.2 0 015.51-12.94l-4.6-4.59a7.62 7.62 0 010-10.72l6.31-6.31a7.6 7.6 0 0110.72 0l5 5A46.6 46.6 0 0149.4 15V7.58A7.6 7.6 0 0157 0h8.9a7.6 7.6 0 017.58 7.58v8.26zM59.86 36.68a24.6 24.6 0 11-24.6 24.59 24.59 24.59 0 0124.6-24.59z" fill-rule="evenodd"/></svg>