<svg version="1.0" xmlns="http://www.w3.org/2000/svg" width="1706.667" height="1706.667" viewBox="0 0 1280 1280"><path d="M615 .6c-16.8 1.2-40.6 3.7-55.8 5.9L542 8.9l-5.4 5.8c-2.9 3.2-9.3 10.2-14.2 15.6l-9 9.8-1.3 16.2c-3.5 45.2-10.1 74.8-21.9 98-4.9 9.7-6.9 12.4-14.7 20.3-14.3 14.4-28.5 20.4-48 20.4-29.5 0-59.4-16.1-109.1-58.5l-13.2-11.2-21-.8-21.1-.7-8.3 6.3c-48.3 36.5-90.6 78.3-125.7 123.9l-7.3 9.4.6 13.6c.4 7.4.9 17 1.2 21.3l.6 7.8 9.7 11.2c32.1 37 50 64.2 57.6 87.7 4 12.2 4.6 28.4 1.6 39.5-3.5 12.8-8.3 20.8-18.1 30.5-4.7 4.7-11.1 10-14.2 11.8-14.5 8.6-34.8 15.3-59.3 19.7-13.9 2.5-49.9 6.5-58.3 6.5-4.3 0-4.9.4-20.2 14.5L7.2 542l-1.1 7.7c-8.1 55.9-7.9 126 .5 185.5.6 4.6 1.2 5.2 16.1 18.7 11.5 10.5 16.3 14.2 18.6 14.5 1.8.2 12.5 1.2 23.8 2 43.2 3.4 68.4 8.9 90.4 19.6 16.6 8.1 27.6 18.9 34 33.5 7.4 16.7 7.4 37.4-.1 57.2-8.7 23.1-28.1 52.1-57.1 85.5l-8.4 9.7-1 21.1-1 21.2 7.1 9.4c30.5 40.1 73 81.7 121.3 118.7l12.7 9.8 21.1-.7 21.2-.7 11.6-9.9c36.3-31 63.7-48.3 87.6-55.4 7.7-2.3 10.9-2.7 22-2.8 12 0 13.7.2 21.8 3.1 29.6 10.4 46.3 33.8 56.1 78.3 3.8 17.7 8.6 55.8 8.6 69.3 0 3.6 1 5 14.4 19.6l14.5 15.7 7.8 1.2c24 3.6 61.7 6.2 89.8 6.2 28.5 0 69.1-2.9 89.9-6.3l7-1.2 14.2-15.4 14.2-15.5.7-9c6.1-82.8 21.4-121.7 54.5-138.5 12.2-6.2 17.8-7.5 32-7.5 10.5.1 13.9.5 21.5 2.8 24.3 7.2 53.6 25.8 90.9 57.9l9 7.7h7c3.9 0 13.4.3 21.1.6l14 .6 15-11.7c45.7-35.5 86.6-75.6 117.1-114.9l8.6-11-.7-20.5c-.8-24 1.3-19.1-18.5-42.7-50.4-60-64.2-99.6-46.8-134.7 6-12 16.8-22.5 30.3-29.4 11-5.6 17.9-8.1 31.8-11.7 17.6-4.6 47.7-8.7 74.7-10.2 6.3-.3 12.7-1.2 14.2-1.9 1.4-.7 9.1-7.2 17.1-14.4 16.3-15 14.3-11 17.2-34.1 3.1-25.5 3.9-41.6 4-78 0-38-.8-52.1-4.5-82.3-1.1-8.6-2-15.9-2-16.1 0-.2-7.2-7-15.9-15-15.7-14.4-16-14.6-20.5-14.6-7.5 0-43.1-3.8-56.1-6-23.9-4.1-38.6-8.5-55-16.6-22.5-11-35-25.6-40.5-47.1-8.1-31.6 7.7-65.6 57.5-123.8l12-14 .7-14c.3-7.7.7-17.4.7-21.5v-7.5l-9-11.5c-34.2-43.7-76.3-85.1-122.1-119.9l-9.7-7.3-21.1.7-21 .8-12.8 10.9c-40 34.3-67.9 51.5-92.7 57.3-8.6 2-24.9 1.9-32.9-.1-10.1-2.5-21.8-8.9-29.5-16.1-23-21.2-34.1-57.1-39.6-128.5l-.7-8.7-13.9-15.3c-8.4-9.1-15-15.6-16.5-16-3-.8-37.2-5.3-51.9-6.8C672.1.9 624.5-.1 615 .6zm58.2 478.3c22.3 4.9 43.9 14.2 61.8 26.9 12.2 8.6 30.6 27 39.2 39.2 12.6 17.8 22 39.5 27 62.3 1.9 8.9 2.2 13.2 2.2 32.7 0 19.6-.3 23.8-2.2 32.7-4.9 22.5-14.5 44.7-27 62.3-8.5 12-27 30.6-38.7 38.8-22.3 15.8-48.2 25.8-75 29.3-13 1.7-41.4.6-53.7-2-58.6-12.6-105.9-54.2-124.2-109.2-6.5-19.4-8-29-8-51.4-.1-17.3.2-21.5 2.3-31.5 14.3-68.9 68-120.1 138-131.5 13-2.1 45.6-1.3 58.3 1.4z"/></svg>