<svg version="1.1" id="Capa_1" xmlns="http://www.w3.org/2000/svg" x="0" y="0" viewBox="0 0 492.189 492.189" xml:space="preserve"><path d="M10.998 256.958c13.017 3.232 34.841-55.978 34.841-55.978 11.823-51.125 43.541-97.591 92.041-126.807 34.119-20.552 71.9-29.776 108.965-28.76v-.261c63.951-1.163 126.842 28.274 166.339 82.772l-31.513 18.946a6.127 6.127 0 00-2.096 8.407s92.224 55.336 98.526 56.909c6.305 1.572 7.875-4.732 7.875-4.732l-4.032-113.713a6.127 6.127 0 00-8.404-2.096l-22.814 13.715C402.713 36.912 324.803-.089 245.604 1.482v.243C201.252.942 156.149 12.194 115.35 36.771 53.016 74.322 13.477 135.275 1.151 201.601c-1.825 3.675-3.17 52.129 9.847 55.357zm470.229-21.505c-13.012-3.244-34.892 55.943-34.892 55.943-11.873 51.116-43.638 97.549-92.164 126.721-34.137 20.52-71.928 29.709-108.993 28.654v.268c-63.818 1.098-126.562-28.264-166.035-82.619l31.498-18.974a6.128 6.128 0 002.088-8.409s-92.275-55.248-98.58-56.815c-6.307-1.565-7.869 4.74-7.869 4.74l4.14 113.707a6.126 6.126 0 008.407 2.088l22.799-13.737c48.079 68.401 126.024 105.33 205.22 103.682v-.239c44.2.742 89.14-10.475 129.82-34.926 62.372-37.489 101.969-98.402 114.36-164.72 1.826-3.671 3.212-52.123-9.799-55.364z"/></svg>