<svg id="Layer_1" data-name="Layer 1" xmlns="http://www.w3.org/2000/svg" viewBox="0 0 122.88 107.54"><path d="M3.93 7.86a3.93 3.93 0 010-7.86h10.61a18.28 18.28 0 019.56 2.49 14.69 14.69 0 016.41 9.1c.32 1.41.66 2.82 1 4.23H119a3.92 3.92 0 013.93 3.92 4 4 0 01-.19 1.22l-10.22 41.12a3.92 3.92 0 01-3.8 3H44.66c1.44 5.21 2.76 8 4.7 9.34 2.27 1.52 6.31 1.63 13 1.52h45.24a3.93 3.93 0 110 7.86H62.46c-8.27.15-13.38-.09-17.46-2.84s-6.36-7.55-8.57-16.3l-13.51-51a7.19 7.19 0 00-3-4.49 10.8 10.8 0 00-5.51-1.3H3.93zM96 88.34a9.6 9.6 0 11-9.6 9.6 9.6 9.6 0 019.6-9.6zm-42.1 0a9.6 9.6 0 11-9.6 9.6 9.6 9.6 0 019.6-9.6zM78 23.67V38h32.45l3.53-14.28zm0 22.14v11.41h27.69l2.82-11.41zm-7.89 11.41V45.81H39.63q1.57 5.7 3 11.41zm0-19.27V23.67H33.54c1.26 4.76 2.58 9.52 3.91 14.28z"/></svg>