<svg version="1.1" id="Layer_1" xmlns="http://www.w3.org/2000/svg" x="0" y="0" viewBox="0 0 122.88 94.58" xml:space="preserve"><path d="M6.52 91.32a3.26 3.26 0 01-6.52 0V73.45c0-.11.01-.22.02-.32.05-1.86.64-3.37 1.75-4.55 1.16-1.23 2.74-1.93 4.72-2.14.17-.02.34-.02.51-.01l22.24.04v-17.4c0-.11.01-.22.02-.33.05-1.17.41-2.17 1.1-2.98.85-1 2-1.52 3.44-1.55h.09v-.01h24.66V27.61c0-.17.01-.34.04-.51.14-1.42.7-2.53 1.59-3.38.91-.87 2.04-1.33 3.33-1.49.13-.02.26-.02.38-.02h25.08c0-5.09.28-10.99 0-15.99 0-.95.32-2.38 1.11-3.58.9-1.37 2.34-2.5 4.5-2.63l.35-.01h24.69a3.26 3.26 0 010 6.52H95.49v18.95c0 1.8-1.46 3.26-3.26 3.26H65.06v18.73c0 1.8-1.46 3.26-3.26 3.26H35.76v19h-.01a3.25 3.25 0 01-3.25 3.25l-25.47-.05c-.31.04-.49.08-.53.11v.09c.01.11.02.21.02.32v17.88z"/></svg>