<svg version="1.1" id="Layer_1" xmlns="http://www.w3.org/2000/svg" x="0" y="0" viewBox="0 0 122.88 122.88" xml:space="preserve"><path d="M1.48 78.38l76.9-76.9C79.36.49 80.65 0 81.95 0c1.29 0 2.59.49 3.57 1.48l10.17 10.17c.55.55.61 1.4.17 2.01a9.765 9.765 0 00-1.3 6.16 9.704 9.704 0 002.78 5.72 9.617 9.617 0 005.72 2.78c2.14.26 4.35-.2 6.24-1.36.63-.38 1.42-.27 1.92.23l10.17 10.17c.98.98 1.48 2.28 1.48 3.57s-.49 2.59-1.48 3.57l-76.9 76.9c-.98.98-2.28 1.48-3.57 1.48a5.01 5.01 0 01-3.57-1.48l-10.1-10.1a1.57 1.57 0 01-.15-2.05 9.778 9.778 0 001.51-6.28 9.651 9.651 0 00-2.81-5.89 9.706 9.706 0 00-5.89-2.81c-2.2-.22-4.45.3-6.36 1.56-.63.42-1.46.32-1.97-.2L1.48 85.52A5.027 5.027 0 010 81.95c0-1.3.49-2.59 1.48-3.57zM80.6 3.7L3.7 80.6c-.37.37-.55.86-.55 1.35 0 .49.18.98.55 1.35l9.25 9.25c2.26-1.18 4.8-1.65 7.28-1.4 2.85.29 5.63 1.52 7.8 3.7 2.18 2.18 3.41 4.95 3.7 7.8.25 2.48-.21 5.02-1.4 7.28l9.25 9.25c.37.37.86.55 1.35.55.49 0 .98-.18 1.35-.55l76.9-76.9c.37-.37.55-.86.55-1.35 0-.49-.18-.98-.55-1.35l-9.34-9.34a12.858 12.858 0 01-7.15 1.2 12.874 12.874 0 01-11.26-11.26c-.29-2.42.11-4.91 1.2-7.15L83.3 3.7c-.37-.37-.86-.55-1.35-.55-.49-.01-.98.18-1.35.55zM25.26 73.45l38.37-38.37a5.625 5.625 0 013.98-1.64c1.45 0 2.89.55 3.98 1.64l17.64 17.64a5.6 5.6 0 011.64 3.98c0 1.44-.55 2.89-1.64 3.98L50.86 99.05a5.6 5.6 0 01-3.98 1.64c-1.44 0-2.88-.55-3.98-1.64L25.26 81.42c-1.1-1.1-1.64-2.54-1.64-3.98s.55-2.89 1.64-3.99zm40.6-36.15L27.48 75.67c-.48.48-.72 1.12-.72 1.76 0 .64.24 1.28.72 1.76l17.64 17.64c.48.48 1.12.72 1.76.72.64 0 1.28-.24 1.76-.72l38.37-38.37c.48-.48.72-1.12.72-1.76 0-.64-.24-1.28-.72-1.76L69.38 37.3c-.49-.49-1.12-.73-1.76-.73-.64 0-1.28.25-1.76.73z"/></svg>