<svg version="1.1" id="Layer_1" xmlns="http://www.w3.org/2000/svg" x="0" y="0" viewBox="0 0 122.88 122.88" xml:space="preserve"><path d="M1.04 79.96L64.7 16.3c.55.07 1.13-.1 1.55-.52.42-.42.6-1 .52-1.55L79.96 1.04a3.58 3.58 0 015.05 0l10.43 10.44a11.605 11.605 0 001.7 14.26c3.87 3.87 9.79 4.43 14.26 1.7l10.43 10.43a3.58 3.58 0 010 5.05l-13.19 13.19c-.55-.07-1.12.1-1.55.52-.42.42-.6 1-.52 1.55l-63.65 63.65a3.58 3.58 0 01-5.05 0L27.5 111.47c2.98-4.51 2.48-10.63-1.48-14.6-3.97-3.97-10.09-4.46-14.6-1.48L1.04 85.01a3.58 3.58 0 010-5.05zm101.23-28.15c.72-.72 1.89-.72 2.61 0s.72 1.89 0 2.61-1.89.72-2.61 0-.72-1.89 0-2.61zm-4.83-4.83c.72-.72 1.89-.72 2.61 0s.72 1.89 0 2.61-1.89.72-2.61 0-.72-1.89 0-2.61zm-4.83-4.83c.72-.72 1.89-.72 2.61 0s.72 1.89 0 2.61-1.89.72-2.61 0-.72-1.89 0-2.61zm-4.83-4.83c.72-.72 1.89-.72 2.61 0s.72 1.89 0 2.61-1.89.72-2.61 0-.72-1.89 0-2.61zm-4.83-4.83c.72-.72 1.89-.72 2.61 0s.72 1.89 0 2.61-1.89.72-2.61 0-.72-1.89 0-2.61zm-4.83-4.83c.72-.72 1.89-.72 2.61 0s.72 1.89 0 2.61-1.89.72-2.61 0-.72-1.89 0-2.61zm-4.83-4.83c.72-.72 1.89-.72 2.61 0s.72 1.89 0 2.61-1.89.72-2.61 0-.72-1.89 0-2.61zM68.46 18c.72-.72 1.89-.72 2.61 0s.72 1.89 0 2.61-1.89.72-2.61 0-.72-1.89 0-2.61zM25.45 74.91l39.38-39.38a4.177 4.177 0 015.89 0l18.1 18.1a4.177 4.177 0 010 5.89L49.44 98.9a4.177 4.177 0 01-5.89 0l-18.1-18.1a4.177 4.177 0 010-5.89z" fill-rule="evenodd" clip-rule="evenodd"/></svg>