<svg id="Layer_1" data-name="Layer 1" xmlns="http://www.w3.org/2000/svg" viewBox="0 0 122.88 122.88"><path d="M21.47 0h81.58a19.79 19.79 0 0114 5.82l.32.35a19.79 19.79 0 015.5 13.66v83.22a19.91 19.91 0 01-19.83 19.83H19.83A19.91 19.91 0 010 103.05V21.47A21.56 21.56 0 0121.47 0zm33.87 33.8l6.1 14.78h.89l6.1-14.78h19.19L75.33 60.51l12.29 28.57H68l-6.65-15.92h-.79L54 89.08H35.27l12-28-12-27.24zm47.71-23.69H21.47a11.37 11.37 0 00-11.36 11.36v81.58a9.77 9.77 0 009.72 9.72h83.22a9.73 9.73 0 009.72-9.72V19.83a9.73 9.73 0 00-2.62-6.64l-.24-.22a9.69 9.69 0 00-6.86-2.86z"/></svg>