<svg width="100" height="115" viewBox="0 0 100 115" fill="none" xmlns="http://www.w3.org/2000/svg">
<path fill-rule="evenodd" clip-rule="evenodd" d="M16.6325 0H96.7929V89.4655C96.6459 91.9644 93.4209 92.0223 89.9287 91.8664H15.4477C3.7951 91.8664 3.79955 107.548 15.4477 107.548H93.1381V99.147L100 99.1403V110.076C100 112.234 98.2361 113.998 96.078 113.998H15.7906C6.26503 114.833 0 111.045 0 102.361V16.6325C0 7.4833 7.4833 0 16.6325 0ZM67.6637 43.0267C69.0802 43.0846 70.0846 43.5546 70.6637 44.4365C72.2361 46.7973 70.0891 49.1247 68.5991 50.7661L52.6971 65.2383C51.1136 66.9911 48.8641 66.9911 47.2851 65.2383L31.0067 50.3252C29.608 48.7528 27.8797 46.6125 29.3363 44.4365C29.9287 43.5546 30.9265 43.0846 32.3408 43.0267H40.9087V29.5278C40.9087 27.1893 42.8174 25.2806 45.1559 25.2806H54.8842C57.2272 25.2806 59.1359 27.2071 59.1359 29.5278V43.0267H67.6637Z" fill="black"/>
</svg>
