<?xml version="1.0" encoding="utf-8"?><!DOCTYPE svg PUBLIC "-//W3C//DTD SVG 1.1//EN" "http://www.w3.org/Graphics/SVG/1.1/DTD/svg11.dtd"><svg viewBox="0 0 1706.667 1706.667" xmlns="http://www.w3.org/2000/svg" xmlns:xlink="http://www.w3.org/1999/xlink"><style>:root>svg{display:none}:root>svg:target{display:block}</style><svg id="ach1" data-name="Layer 1" viewBox="0 0 93.56 122.88" xmlns="http://www.w3.org/2000/svg"><defs><style>.aacls-1{fill-rule:evenodd}</style></defs><path class="aacls-1" d="M90.12 112.94l-11.7-2.1-5.81 10.39c-4.21 5.22-6.88-3.36-8.06-6.35l-11.29-21.3c2.6-.9 5.74-3.51 9-6.43 6.43.13 12.42-1 16.83-6.6l13 25.08 1.13 2.4c.88 3.13.42 5.2-3 4.91zm-86.68 0l11.7-2.1L21 121.23c4.21 5.22 6.88-3.36 8.06-6.35l11.24-21.3c-2.6-.9-5.74-3.51-9-6.43-6.43.13-12.42-1-16.83-6.6l-13 25.08L.39 108c-.89 3.13-.42 5.2 3.05 4.91zM70.5 8a6 6 0 012 1.26l5.72 5.28a6.59 6.59 0 011.4 1.89 5.7 5.7 0 01.56 2.33 6.18 6.18 0 01-.39 2.37 5.51 5.51 0 01-1.3 2l-.76.83a34.66 34.66 0 013 7h.55a5.88 5.88 0 012.37.38 6 6 0 012 1.27 5.8 5.8 0 011.37 1.91 6.16 6.16 0 01.55 2.29l.29 7.87A5.87 5.87 0 0186.3 49a6 6 0 01-1.94 1.41 6.2 6.2 0 01-2.33.52h-1.14a35.18 35.18 0 01-2.83 7l.41.36.11.11a5.9 5.9 0 011.33 1.94 6 6 0 01.52 2.29 6.16 6.16 0 01-.35 2.3 6.29 6.29 0 01-1.19 2l-.07.07-5.32 5.71a6.1 6.1 0 01-1.9 1.44 5.9 5.9 0 01-2.37.56 6.5 6.5 0 01-2.4-.39 5.59 5.59 0 01-2-1.3L64 72.2a34.45 34.45 0 01-6.89 2.92v.57a5.49 5.49 0 01-.39 2.36 5.64 5.64 0 01-1.26 2 5.66 5.66 0 01-1.91 1.37 6.12 6.12 0 01-2.28.56l-7.87.28a5.88 5.88 0 01-4.4-1.57 6.15 6.15 0 01-1.41-1.94 6.4 6.4 0 01-.59-2.33v-1.15a34.85 34.85 0 01-7-2.83l-.38.41-.1.11a5.75 5.75 0 01-1.94 1.33 6.26 6.26 0 01-4.58.17 6.52 6.52 0 01-2-1.19l-.07-.07-5.73-5.39a6.68 6.68 0 01-1.4-1.91 6 6 0 01-.56-2.33 6.61 6.61 0 01.39-2.36 6.46 6.46 0 011.3-2l.81-.87a35.39 35.39 0 01-2.92-6.9h-.56a5.49 5.49 0 01-2.36-.39 5.82 5.82 0 01-2-1.26 5.91 5.91 0 01-1.37-1.91 6.41 6.41 0 01-.55-2.29l-.29-7.87A6.47 6.47 0 016 35.36a6.41 6.41 0 011.26-2 6.15 6.15 0 011.94-1.44 6.4 6.4 0 012.33-.52h1.14a35.32 35.32 0 012.84-7l-.37-.4a5.6 5.6 0 01-1.41-1.94 5.86 5.86 0 01-.56-2.33 5.75 5.75 0 01.39-2.36 6.07 6.07 0 011.26-2l5.28-5.75A6.49 6.49 0 0122 8.18a5.85 5.85 0 012.33-.55 6.36 6.36 0 012.36.37 5.51 5.51 0 012 1.3l.89.82a35.12 35.12 0 016.87-2.92v-.6a5.64 5.64 0 01.39-2.36 6 6 0 011.26-2A5.73 5.73 0 0140 .85a6.17 6.17 0 012.28-.56L50.14 0a6.53 6.53 0 012.37.35 5.53 5.53 0 012 1.27A5.86 5.86 0 0156 3.55a6.4 6.4 0 01.52 2.33v1.14a35.37 35.37 0 017 2.83l.35-.37a5.57 5.57 0 011.94-1.4 5.78 5.78 0 012.33-.56 5.91 5.91 0 012.36.38V8zM37.83 35l5.69 5.36L54.94 28.7c1.13-1.15 1.84-2.06 3.23-.63l4.53 4.63c1.49 1.47 1.41 2.33 0 3.7L46.09 52.71c-3 2.9-2.44 3.08-5.43.11L30.2 42.42a1.32 1.32 0 01.13-2l5.25-5.44c.8-.82 1.43-.77 2.25 0zm3.9-19a25.64 25.64 0 11-20.08 30.21A25.65 25.65 0 0141.73 16z"/></svg><svg data-name="Layer 1" viewBox="0 0 122.88 117.19" id="ach2" xmlns="http://www.w3.org/2000/svg"><path d="M64.39 2l15.72 36.76L120 42.33a3.2 3.2 0 011.83 5.59L91.64 74.25l8.92 39a3.2 3.2 0 01-4.87 3.4L61.44 96.19l-34.35 20.54a3.2 3.2 0 01-4.76-3.46l8.92-39L1.09 47.92A3.2 3.2 0 013 42.32l39.74-3.56L58.49 2a3.2 3.2 0 015.9 0z"/></svg><svg viewBox="0 0 41 80" id="ar" xmlns="http://www.w3.org/2000/svg"><path d="M23.52 40L.48 80l40-40-40-40 23.04 40z"/></svg><svg viewBox="0 0 611.999 611.999" id="bell" xmlns="http://www.w3.org/2000/svg"><path d="M570.107 500.254c-65.037-29.371-67.511-155.441-67.559-158.622v-84.578c0-81.402-49.742-151.399-120.427-181.203C381.969 34 347.883 0 306.001 0c-41.883 0-75.968 34.002-76.121 75.849-70.682 29.804-120.425 99.801-120.425 181.203v84.578c-.046 3.181-2.522 129.251-67.561 158.622a17.257 17.257 0 007.103 32.986h164.88c3.38 18.594 12.172 35.892 25.619 49.903 17.86 18.608 41.479 28.856 66.502 28.856 25.025 0 48.644-10.248 66.502-28.856 13.449-14.012 22.241-31.311 25.619-49.903h164.88a17.26 17.26 0 0016.872-13.626 17.25 17.25 0 00-9.764-19.358zm-85.673-60.395c6.837 20.728 16.518 41.544 30.246 58.866H97.32c13.726-17.32 23.407-38.135 30.244-58.866h356.87zM306.001 34.515c18.945 0 34.963 12.73 39.975 30.082-12.912-2.678-26.282-4.09-39.975-4.09s-27.063 1.411-39.975 4.09c5.013-17.351 21.031-30.082 39.975-30.082zM143.97 341.736v-84.685c0-89.343 72.686-162.029 162.031-162.029s162.031 72.686 162.031 162.029v84.826c.023 2.596.427 29.879 7.303 63.465H136.663c6.88-33.618 7.286-60.949 7.307-63.606zm162.031 235.749c-26.341 0-49.33-18.992-56.709-44.246h113.416c-7.379 25.254-30.364 44.246-56.707 44.246z"/><path d="M306.001 119.235c-74.25 0-134.657 60.405-134.657 134.654 0 9.531 7.727 17.258 17.258 17.258 9.531 0 17.258-7.727 17.258-17.258 0-55.217 44.923-100.139 100.142-100.139 9.531 0 17.258-7.727 17.258-17.258-.001-9.532-7.728-17.257-17.259-17.257z"/></svg><svg version="1.1" id="bomb" x="0" y="0" viewBox="0 0 122.88 103.74" xml:space="preserve" xmlns="http://www.w3.org/2000/svg"><style>.aest0{fill-rule:evenodd;clip-rule:evenodd}</style><path class="aest0" d="M80.75 23.27l-5.49 9.51c12.78 16.46 14.41 32.95 4.9 49.42-5.93 10.28-14.62 16.93-26.07 19.98-11.42 3.06-22.28 1.61-32.54-4.31-10.23-5.9-16.89-14.56-19.96-25.99-3.09-11.44-1.7-22.24 4.18-32.42C15.04 23.4 30.16 16.54 51.1 18.85l5.49-9.51c3.05.13 6.45.92 10.22 2.33l.84-1.46c2.77-4.8 6.67-7.97 11.7-9.44C84.39-.72 89.07 0 93.7 2.46c18.21 9.66 2.63 28.12 16.64 37.46 1.84 1.22 4.73 1.74 8.43 1.9.54 0 1.19.21 1.88.61 2.15 1.24 2.73 2.72 1.74 4.44-1.05 1.82-3.25 2.71-6.61 2.62-3.35-.05-6.66-1.04-9.92-2.92-16.51-9.53-3.55-28.1-16.43-37.02-5.76-3.99-11.22-1.64-15.69 6.11 2.67 2.43 5 4.96 7.01 7.61z"/></svg><svg viewBox="0 0 511.634 511.634" id="cal1" xmlns="http://www.w3.org/2000/svg"><path d="M482.513 83.942c-7.225-7.233-15.797-10.85-25.694-10.85h-36.541v-27.41c0-12.56-4.477-23.315-13.422-32.261C397.906 4.475 387.157 0 374.591 0h-18.268c-12.565 0-23.318 4.475-32.264 13.422-8.949 8.945-13.422 19.701-13.422 32.261v27.41h-109.63v-27.41c0-12.56-4.475-23.315-13.422-32.261C178.64 4.475 167.886 0 155.321 0H137.05c-12.562 0-23.317 4.475-32.264 13.422-8.945 8.945-13.421 19.701-13.421 32.261v27.41H54.823c-9.9 0-18.464 3.617-25.697 10.85-7.233 7.232-10.85 15.8-10.85 25.697v365.453c0 9.89 3.617 18.456 10.85 25.693 7.232 7.231 15.796 10.849 25.697 10.849h401.989c9.897 0 18.47-3.617 25.694-10.849 7.234-7.234 10.852-15.804 10.852-25.693V109.639c-.001-9.9-3.615-18.464-10.845-25.697zM137.047 475.088H54.823v-82.23h82.224v82.23zm0-100.498H54.823v-91.358h82.224v91.358zm0-109.639H54.823v-82.223h82.224v82.223zm-6.42-130.618c-1.809-1.809-2.712-3.946-2.712-6.423V45.686c0-2.474.903-4.617 2.712-6.423 1.809-1.809 3.946-2.712 6.423-2.712h18.271c2.474 0 4.617.903 6.423 2.712 1.809 1.807 2.714 3.949 2.714 6.423v82.224c0 2.478-.909 4.615-2.714 6.423-1.807 1.809-3.946 2.712-6.423 2.712H137.05c-2.474.001-4.614-.903-6.423-2.712zm116.056 340.755h-91.365v-82.23h91.365v82.23zm0-100.498h-91.365v-91.358h91.365v91.358zm0-109.639h-91.365v-82.223h91.365v82.223zm109.64 210.137h-91.364v-82.23h91.364v82.23zm0-100.498h-91.364v-91.358h91.364v91.358zm0-109.639h-91.364v-82.223h91.364v82.223zm-6.427-130.618c-1.807-1.809-2.707-3.946-2.707-6.423V45.686c0-2.474.9-4.617 2.707-6.423 1.808-1.809 3.949-2.712 6.427-2.712h18.268c2.478 0 4.617.903 6.427 2.712 1.808 1.807 2.707 3.949 2.707 6.423v82.224c0 2.478-.903 4.615-2.707 6.423-1.807 1.809-3.949 2.712-6.427 2.712h-18.268c-2.477.001-4.626-.903-6.427-2.712zm106.916 340.755h-82.228v-82.23h82.228v82.23zm0-100.498h-82.228v-91.358h82.228v91.358zm0-109.639h-82.228v-82.223h82.228v82.223z"/></svg><svg id="check" data-name="Layer 1" viewBox="0 0 122.88 109.76" xmlns="http://www.w3.org/2000/svg"><defs><style>.agcls-1{fill:#ff4141;fill-rule:evenodd}</style></defs><path class="agcls-1" d="M0 52.88l22.68-.3A84.1 84.1 0 0146 72.44 314.13 314.13 0 01105.6 0h17.28a522.93 522.93 0 00-76.11 109.76C36 86.69 21 67.27 0 52.88z"/></svg><svg id="chopsticks" data-name="Layer 1" viewBox="0 0 122.88 122.88" xmlns="http://www.w3.org/2000/svg"><defs><style>.ahcls-1{fill-rule:evenodd}</style></defs><path class="ahcls-1" d="M16.37 122.31l-4.55-4.55a1.91 1.91 0 010-2.72L119.5 11.81a2 2 0 012.73 0l.09.09a2 2 0 010 2.73L19.09 122.31a1.91 1.91 0 01-2.72 0zM5.12 111.06l-4.55-4.55a1.91 1.91 0 010-2.72L108.25.56a2 2 0 012.73 0l.09.09a2 2 0 010 2.73L7.84 111.06a1.91 1.91 0 01-2.72 0zM40.27 67.3l26.26-25.17 3 3-25.2 26.23-4.06-4.06zm11.25 11.25l26.26-25.17 3 3-25.2 26.23-4.06-4.06z"/></svg><svg viewBox="0 0 122.879 103.39" id="doc" xmlns="http://www.w3.org/2000/svg"><path d="M2.971 18.676l3.314-.001v-8.14a2.971 2.971 0 012.972-2.971h3.233V2.971c0-.817.333-1.561.869-2.098A2.965 2.965 0 0115.46 0h36.251a2.96 2.96 0 012.099.872c.539.535.873 1.278.873 2.099v4.593h48.155a2.965 2.965 0 012.971 2.971v8.14h3.342a2.968 2.968 0 012.971 2.972 4.171 4.171 0 01-.065.585l-3.188 23.435c8.447 5.653 14.011 15.282 14.011 26.209 0 17.404-14.109 31.515-31.515 31.515-11.842 0-22.157-6.534-27.542-16.192H13.975a7.56 7.56 0 01-2.918-.578 7.798 7.798 0 01-2.49-1.673 8.436 8.436 0 01-1.691-2.434 9.355 9.355 0 01-.809-2.928L.016 21.956a2.955 2.955 0 01.65-2.175 2.949 2.949 0 011.997-1.08l.308-.025zm102.96 48.584h-.004l-.003-.001h-.003l-.003-.001h-.008l-.003-.001h-.003l-.003-.001h-.007l-.004-.001h-.003l-.003-.001h-.011l-.003-.001h-.003l-.004-.001h-.007l-.003-.001h-.01l-.004-.001h-.007l-.003-.001h-.014l-.003-.001h-.01l-.004-.001h-.02l-.004-.001h-.024l-.004-.001h-9.757v-9.723c0-.862-.706-1.571-1.571-1.571h-6.116a1.58 1.58 0 00-1.572 1.571v9.723h-9.723a1.58 1.58 0 00-1.571 1.575v6.112c0 .866.709 1.575 1.571 1.572h9.727V86.268l.001.011v.017l.001.013v.005l.001.017.001.017v.002l.002.015.001.017.001.008.001.01.002.016.002.014v.004l.002.016.003.017v.003l.003.014.002.017.002.009.001.007.004.017.002.015.001.002.004.016.003.017.001.004.003.012.004.016.003.011.001.006.005.016.004.016.005.016.005.016.001.006.004.01.005.016.004.011.001.005.006.016.006.015v.002l.005.014.006.015.003.007.004.009.006.015.005.013.001.003.007.015.007.015.001.002.006.013.007.015.003.008.004.007.007.015.007.013.001.001.007.015.008.014.002.004.006.011.008.014.005.009.003.005.009.015.008.013.009.015.009.014.003.004.006.009.009.014.006.01.003.004.009.013.01.014v.001l.009.012.01.013.004.006.006.007.01.013.008.011.002.002c.289.365.735.602 1.232.602h6.113a1.57 1.57 0 001.233-.602l.001-.001.009-.012.01-.013.004-.005.006-.008.009-.013.008-.011.002-.002.009-.014.01-.013.001-.003.008-.011.009-.013.009-.014.008-.014.009-.013v-.02l.009-.014.008-.014.002-.004.006-.011.008-.014.005-.009.003-.005.008-.015.007-.014.001-.001.007-.014.007-.015.003-.006.004-.009.007-.015.006-.011.001-.004.007-.015.002-.003.01-.024.001-.002.006-.016.003-.007.003-.008.006-.016.005-.013.001-.002.006-.016.005-.016.002-.003.004-.012.005-.016.003-.01.002-.006.005-.016.004-.016h.001l.004-.016.004-.017.002-.005.003-.011.004-.016.002-.012.001-.005.004-.016.004-.017v-.001l.003-.015.003-.017.001-.007.002-.01.003-.016.002-.014.001-.003.002-.017.002-.017.001-.003.001-.014.002-.017.001-.009.001-.008.002-.017.001-.016v-.002l.001-.017.001-.017.001-.005v-.013l.001-.017v-.011l.001-.006v-9.758H105.727a1.58 1.58 0 001.571-1.572v-6.116a1.59 1.59 0 00-1.367-1.538zm-2.646-24.564l2.456-18.061-96.598-.009H6.265l5.706 54.375c.037.351.126.683.259.979s.311.561.521.775c.164.162.354.293.562.379l.037.018c.186.072.393.112.617.112h47.306a31.517 31.517 0 01-1.422-9.39c0-17.405 14.11-31.515 31.515-31.515 4.218.001 8.242.832 11.919 2.337zM12.227 13.515v5.147l87.64-.93v-4.218H51.711a2.963 2.963 0 01-2.102-.871 2.964 2.964 0 01-.87-2.1V5.951h-30.31v4.593c0 .816-.333 1.559-.87 2.097a2.965 2.965 0 01-2.101.874h-3.231z"/></svg><svg fill="none" viewBox="0 0 100 115" id="down" xmlns="http://www.w3.org/2000/svg"><path fill-rule="evenodd" clip-rule="evenodd" d="M16.633 0h80.16v89.466c-.147 2.498-3.372 2.556-6.864 2.4H15.448c-11.653 0-11.648 15.682 0 15.682h77.69v-8.401L100 99.14v10.936a3.932 3.932 0 01-3.922 3.922H15.791C6.265 114.833 0 111.045 0 102.361V16.633C0 7.483 7.483 0 16.633 0zm51.03 43.027c1.417.058 2.422.528 3 1.41 1.573 2.36-.574 4.688-2.064 6.33L52.697 65.237c-1.583 1.753-3.833 1.753-5.412 0L31.007 50.325c-1.399-1.572-3.127-3.713-1.67-5.889.592-.881 1.59-1.351 3.004-1.41h8.568V29.529a4.256 4.256 0 014.247-4.247h9.728c2.343 0 4.252 1.926 4.252 4.247v13.499h8.528z" fill="#000"/></svg><svg version="1.0" viewBox="0 0 1280 1280" id="gear" xmlns="http://www.w3.org/2000/svg"><path d="M615 .6c-16.8 1.2-40.6 3.7-55.8 5.9L542 8.9l-5.4 5.8c-2.9 3.2-9.3 10.2-14.2 15.6l-9 9.8-1.3 16.2c-3.5 45.2-10.1 74.8-21.9 98-4.9 9.7-6.9 12.4-14.7 20.3-14.3 14.4-28.5 20.4-48 20.4-29.5 0-59.4-16.1-109.1-58.5l-13.2-11.2-21-.8-21.1-.7-8.3 6.3c-48.3 36.5-90.6 78.3-125.7 123.9l-7.3 9.4.6 13.6c.4 7.4.9 17 1.2 21.3l.6 7.8 9.7 11.2c32.1 37 50 64.2 57.6 87.7 4 12.2 4.6 28.4 1.6 39.5-3.5 12.8-8.3 20.8-18.1 30.5-4.7 4.7-11.1 10-14.2 11.8-14.5 8.6-34.8 15.3-59.3 19.7-13.9 2.5-49.9 6.5-58.3 6.5-4.3 0-4.9.4-20.2 14.5L7.2 542l-1.1 7.7c-8.1 55.9-7.9 126 .5 185.5.6 4.6 1.2 5.2 16.1 18.7 11.5 10.5 16.3 14.2 18.6 14.5 1.8.2 12.5 1.2 23.8 2 43.2 3.4 68.4 8.9 90.4 19.6 16.6 8.1 27.6 18.9 34 33.5 7.4 16.7 7.4 37.4-.1 57.2-8.7 23.1-28.1 52.1-57.1 85.5l-8.4 9.7-1 21.1-1 21.2 7.1 9.4c30.5 40.1 73 81.7 121.3 118.7l12.7 9.8 21.1-.7 21.2-.7 11.6-9.9c36.3-31 63.7-48.3 87.6-55.4 7.7-2.3 10.9-2.7 22-2.8 12 0 13.7.2 21.8 3.1 29.6 10.4 46.3 33.8 56.1 78.3 3.8 17.7 8.6 55.8 8.6 69.3 0 3.6 1 5 14.4 19.6l14.5 15.7 7.8 1.2c24 3.6 61.7 6.2 89.8 6.2 28.5 0 69.1-2.9 89.9-6.3l7-1.2 14.2-15.4 14.2-15.5.7-9c6.1-82.8 21.4-121.7 54.5-138.5 12.2-6.2 17.8-7.5 32-7.5 10.5.1 13.9.5 21.5 2.8 24.3 7.2 53.6 25.8 90.9 57.9l9 7.7h7c3.9 0 13.4.3 21.1.6l14 .6 15-11.7c45.7-35.5 86.6-75.6 117.1-114.9l8.6-11-.7-20.5c-.8-24 1.3-19.1-18.5-42.7-50.4-60-64.2-99.6-46.8-134.7 6-12 16.8-22.5 30.3-29.4 11-5.6 17.9-8.1 31.8-11.7 17.6-4.6 47.7-8.7 74.7-10.2 6.3-.3 12.7-1.2 14.2-1.9 1.4-.7 9.1-7.2 17.1-14.4 16.3-15 14.3-11 17.2-34.1 3.1-25.5 3.9-41.6 4-78 0-38-.8-52.1-4.5-82.3-1.1-8.6-2-15.9-2-16.1 0-.2-7.2-7-15.9-15-15.7-14.4-16-14.6-20.5-14.6-7.5 0-43.1-3.8-56.1-6-23.9-4.1-38.6-8.5-55-16.6-22.5-11-35-25.6-40.5-47.1-8.1-31.6 7.7-65.6 57.5-123.8l12-14 .7-14c.3-7.7.7-17.4.7-21.5v-7.5l-9-11.5c-34.2-43.7-76.3-85.1-122.1-119.9l-9.7-7.3-21.1.7-21 .8-12.8 10.9c-40 34.3-67.9 51.5-92.7 57.3-8.6 2-24.9 1.9-32.9-.1-10.1-2.5-21.8-8.9-29.5-16.1-23-21.2-34.1-57.1-39.6-128.5l-.7-8.7-13.9-15.3c-8.4-9.1-15-15.6-16.5-16-3-.8-37.2-5.3-51.9-6.8C672.1.9 624.5-.1 615 .6zm58.2 478.3c22.3 4.9 43.9 14.2 61.8 26.9 12.2 8.6 30.6 27 39.2 39.2 12.6 17.8 22 39.5 27 62.3 1.9 8.9 2.2 13.2 2.2 32.7 0 19.6-.3 23.8-2.2 32.7-4.9 22.5-14.5 44.7-27 62.3-8.5 12-27 30.6-38.7 38.8-22.3 15.8-48.2 25.8-75 29.3-13 1.7-41.4.6-53.7-2-58.6-12.6-105.9-54.2-124.2-109.2-6.5-19.4-8-29-8-51.4-.1-17.3.2-21.5 2.3-31.5 14.3-68.9 68-120.1 138-131.5 13-2.1 45.6-1.3 58.3 1.4z"/></svg><svg id="gear1" data-name="Layer 1" viewBox="0 0 122.88 122.88" xmlns="http://www.w3.org/2000/svg"><defs><style>.alcls-1{fill-rule:evenodd}</style></defs><path class="alcls-1" d="M73.48 15.84A46.87 46.87 0 0184.87 21L91 14.84a7.6 7.6 0 0110.72 0l6.28 6.31a7.6 7.6 0 010 10.72l-6.6 6.6a46.6 46.6 0 014.34 10.93h9.52a7.6 7.6 0 017.62 7.6v8.9a7.6 7.6 0 01-7.58 7.58h-9.61a46.83 46.83 0 01-4.37 10.81L108 91a7.6 7.6 0 010 10.72l-6.27 6.28A7.61 7.61 0 0191 108l-6.34-6.35a47.22 47.22 0 01-11.19 5v8.59a7.6 7.6 0 01-7.58 7.58H57a7.6 7.6 0 01-7.58-7.58v-7.76a47.39 47.39 0 01-12.35-4.68l-5.2 5.2a7.62 7.62 0 01-10.72 0l-6.31-6.31a7.61 7.61 0 010-10.72l4.72-4.72A47.38 47.38 0 0114 73.48H7.58A7.6 7.6 0 010 65.9V57a7.6 7.6 0 017.58-7.6h6.35a47.2 47.2 0 015.51-12.94l-4.6-4.59a7.62 7.62 0 010-10.72l6.31-6.31a7.6 7.6 0 0110.72 0l5 5A46.6 46.6 0 0149.4 15V7.58A7.6 7.6 0 0157 0h8.9a7.6 7.6 0 017.58 7.58v8.26zM59.86 36.68a24.6 24.6 0 11-24.6 24.59 24.59 24.59 0 0124.6-24.59z"/></svg><svg version="1.1" id="gear2" x="0" y="0" viewBox="0 0 110.43 123.94" xml:space="preserve" xmlns="http://www.w3.org/2000/svg"><style>.amst0{fill-rule:evenodd;clip-rule:evenodd;stroke:#000;stroke-width:.5;stroke-miterlimit:2.6131}</style><path class="amst0" d="M78.37 79.91c-.19.47-.49.91-.88 1.3L73.5 85.2l-.02.02c-.39.39-.83.69-1.3.88-.49.21-1 .32-1.55.32s-1.07-.11-1.55-.32c-.47-.21-.9-.51-1.27-.9l-2.6-2.57c-.16.07-.32.16-.47.23-.44.21-.9.39-1.34.56-.02.02-.04.02-.07.02-.44.18-.91.33-1.42.49-.16.05-.32.11-.49.14v3.17c0 .55-.11 1.07-.3 1.55-.19.47-.49.9-.88 1.28l-.04.04c-.39.37-.83.67-1.3.86-.48.19-.99.3-1.51.3h-5.7c-.55 0-1.06-.11-1.55-.3a3.94 3.94 0 01-1.3-.88 3.94 3.94 0 01-.88-1.3c-.19-.48-.3-.99-.3-1.55v-3.62c-.18-.07-.35-.12-.53-.19-.47-.18-.93-.39-1.41-.6-.47-.23-.93-.44-1.37-.67-.14-.07-.28-.16-.42-.23L41.7 84.2l-.05.05c-.39.37-.83.65-1.3.84-.47.19-.98.28-1.51.28a4.012 4.012 0 01-2.81-1.11c-.02-.02-.04-.02-.04-.04l-3.98-4.03a3.872 3.872 0 01-1.22-2.85c0-.55.11-1.07.32-1.57.21-.49.51-.91.9-1.28l2.55-2.55c-.09-.18-.16-.33-.23-.49-.19-.44-.39-.9-.58-1.39-.18-.46-.35-.95-.49-1.44-.05-.16-.11-.33-.14-.49h-3.17c-.55 0-1.07-.11-1.55-.3-.47-.19-.9-.49-1.28-.88l-.04-.04c-.37-.39-.67-.83-.86-1.28-.19-.48-.3-.99-.3-1.51v-5.7c0-1.13.39-2.08 1.18-2.85.39-.39.83-.69 1.3-.88.48-.19.99-.3 1.55-.3h3.62c.07-.18.12-.35.19-.53.18-.47.39-.93.6-1.41.23-.48.44-.93.67-1.37.07-.14.16-.28.23-.42l-2.27-2.23-.05-.05c-.37-.39-.65-.83-.84-1.3-.19-.47-.28-.98-.28-1.51a4.012 4.012 0 011.11-2.81c.02-.02.02-.04.04-.04L37 38.73c.39-.39.83-.69 1.3-.88.49-.21 1-.32 1.55-.32s1.07.11 1.55.32c.47.21.9.51 1.27.9l2.55 2.55c.18-.09.33-.16.49-.23.44-.19.9-.39 1.39-.58.46-.18.95-.35 1.44-.49.18-.05.33-.11.49-.14v-3.17c0-.55.11-1.07.3-1.55.19-.47.49-.9.88-1.28l.04-.04c.39-.37.83-.67 1.28-.86.48-.19.99-.3 1.51-.3h5.7c.55 0 1.06.11 1.55.3.47.19.91.49 1.3.88s.69.83.88 1.3c.19.48.3.99.3 1.55v3.62c.18.07.35.12.53.19.47.18.93.39 1.41.6.47.23.93.44 1.37.67.14.07.28.16.42.23l2.23-2.23c.39-.39.83-.69 1.3-.9.49-.21 1-.32 1.55-.32s1.06.11 1.55.32c.49.21.91.49 1.3.9l3.99 3.99.02.02c.39.39.69.83.88 1.3.21.49.32 1 .32 1.55s-.11 1.07-.32 1.55c-.21.48-.51.9-.9 1.27l-2.55 2.6c.07.16.16.32.23.47.18.4.37.84.56 1.32.02.02.02.04.02.07.18.46.35.95.49 1.44.05.16.11.33.14.49h3.17c.55 0 1.07.11 1.55.3.47.19.9.49 1.28.88l.04.04c.37.39.67.83.86 1.28.19.48.3.99.3 1.51v5.7c0 .55-.11 1.06-.3 1.55-.19.47-.49.91-.88 1.32-.39.39-.83.69-1.3.88-.48.19-.99.3-1.55.3h-3.62c-.07.18-.12.35-.19.53-.18.47-.37.93-.6 1.41-.23.47-.44.93-.67 1.37-.07.14-.16.28-.23.42l2.23 2.23c.39.39.69.83.9 1.3.21.49.32 1 .32 1.55s-.11 1.06-.32 1.55l.07-.05zM44.99 116c-12.7-2.39-23.86-9.16-31.85-18.67C5.09 87.76.25 75.43.25 61.99c0-12.63 4.27-24.28 11.46-33.57 7.33-9.49 17.7-16.52 29.66-19.62l1.78 6.86c-10.41 2.7-19.44 8.82-25.83 17.09-6.24 8.08-9.95 18.22-9.95 29.24 0 11.73 4.21 22.47 11.19 30.78 6.68 7.95 15.91 13.7 26.44 15.98v-7.33l13.39 10.99L45 123.4l-.01-7.4zM65.44 7.99c12.58 2.37 23.65 9.03 31.63 18.41 8.17 9.6 13.1 22.03 13.1 35.59 0 11.93-3.8 22.97-10.26 31.98a55.103 55.103 0 01-27.06 20.08l-1.14-3.36-1.14-3.36c.28-.09.56-.19.83-.29 9.21-3.31 17.11-9.38 22.72-17.2A47.615 47.615 0 00103.05 62c0-11.84-4.28-22.67-11.38-31.01C85 23.15 75.85 17.5 65.43 15.23v7.29l-13.38-11L65.44.53v7.46zm-.28 53.98c0 .69-.07 1.35-.19 1.99h-.02c-.12.65-.32 1.27-.56 1.86-.26.62-.56 1.2-.91 1.71-.33.53-.74 1.02-1.18 1.46-.46.46-.93.84-1.46 1.2-.51.33-1.09.65-1.71.91-.02.02-.05.02-.07.04-.56.23-1.16.4-1.78.53-.65.12-1.3.19-1.99.19s-1.35-.07-1.99-.19c-.65-.12-1.27-.32-1.86-.56-.62-.26-1.2-.56-1.71-.91-.53-.35-1.02-.76-1.46-1.2-.44-.46-.83-.93-1.18-1.46-.33-.51-.65-1.09-.91-1.71-.02-.02-.02-.05-.04-.07-.23-.56-.4-1.16-.53-1.78-.12-.65-.19-1.3-.19-1.99s.07-1.35.19-1.99c.12-.65.32-1.27.56-1.86.26-.62.56-1.2.91-1.71.33-.53.74-1.02 1.18-1.46.46-.46.93-.84 1.46-1.2.51-.33 1.09-.65 1.71-.92.02-.02.05-.02.07-.04.58-.23 1.18-.4 1.79-.53.65-.12 1.3-.19 1.99-.19s1.35.07 1.99.19c.65.12 1.27.32 1.86.56.62.26 1.2.56 1.71.92.53.35 1.02.76 1.46 1.2.44.46.83.93 1.18 1.46.33.51.65 1.09.91 1.71.02.02.02.05.04.07a10.198 10.198 0 01.73 3.77z"/></svg><svg id="home" data-name="Layer 1" viewBox="0 0 122.88 113.97" xmlns="http://www.w3.org/2000/svg"><defs><style>.ancls-1{fill-rule:evenodd}</style></defs><path class="ancls-1" d="M18.69 73.37l40.49-40.51c2.14-2.14 2.41-2.23 4.63 0l40.38 40.51V114h-30V86.55a3.38 3.38 0 00-3.37-3.37H52.08a3.38 3.38 0 00-3.37 3.37V114h-30V73.37zM60.17.88L0 57.38l14.84 7.79 42.5-42.86c3.64-3.66 3.68-3.74 7.29-.16l43.41 43 14.84-7.79L62.62.79c-1.08-1-1.24-1.13-2.45.09z"/></svg><svg viewBox="0 0 30 31" id="insta" xmlns="http://www.w3.org/2000/svg"><g clip-path="url(#aoclip0_249_164)"><path d="M29.97 9.07c-.07-1.594-.327-2.69-.697-3.64a7.322 7.322 0 00-1.734-2.66 7.383 7.383 0 00-2.655-1.729c-.955-.37-2.046-.627-3.64-.697C19.64.268 19.13.25 15.056.25c-4.073 0-4.583.018-6.183.088-1.594.07-2.69.328-3.64.697a7.32 7.32 0 00-2.66 1.735 7.386 7.386 0 00-1.73 2.655C.476 6.38.218 7.47.148 9.065.07 10.67.053 11.18.053 15.252c0 4.073.017 4.583.088 6.183.07 1.594.328 2.69.697 3.64a7.398 7.398 0 001.735 2.66 7.383 7.383 0 002.655 1.729c.955.369 2.045.627 3.64.697 1.599.07 2.109.088 6.182.088s4.583-.017 6.183-.088c1.594-.07 2.69-.328 3.639-.697a7.673 7.673 0 004.39-4.39c.369-.955.627-2.045.697-3.64.07-1.6.088-2.109.088-6.182s-.006-4.583-.076-6.183zm-2.7 12.249c-.065 1.465-.311 2.256-.517 2.783a4.976 4.976 0 01-2.848 2.849c-.527.205-1.324.45-2.784.515-1.582.07-2.057.088-6.06.088-4.002 0-4.483-.017-6.06-.088-1.464-.064-2.256-.31-2.783-.515a4.617 4.617 0 01-1.723-1.12 4.665 4.665 0 01-1.12-1.723c-.205-.527-.45-1.324-.515-2.784-.07-1.582-.088-2.057-.088-6.06 0-4.002.018-4.483.088-6.06.064-1.464.31-2.255.516-2.783A4.56 4.56 0 014.5 4.698a4.657 4.657 0 011.723-1.12c.527-.204 1.324-.45 2.784-.515 1.582-.07 2.057-.088 6.06-.088 4.008 0 4.483.018 6.06.088 1.464.065 2.256.31 2.783.516.65.24 1.242.62 1.723 1.119.498.487.879 1.073 1.12 1.723.204.528.45 1.325.515 2.784.07 1.582.088 2.057.088 6.06 0 4.002-.018 4.471-.088 6.054z"/><path d="M15.056 7.546a7.709 7.709 0 00-7.707 7.706 7.709 7.709 0 007.707 7.707 7.708 7.708 0 007.706-7.707 7.708 7.708 0 00-7.706-7.706zm0 12.706a5 5 0 11.001-10 5 5 0 01-.001 10zM24.866 7.242a1.8 1.8 0 11-3.599 0 1.8 1.8 0 013.6 0z"/></g><defs><clipPath id="aoclip0_249_164"><path transform="translate(0 .25)" d="M0 0h30v30H0z"/></clipPath></defs></svg><svg viewBox="0 0 800 800" id="map" xmlns="http://www.w3.org/2000/svg"><g fill="#4D4D4D"><path d="M325.317 578.848c73.923 0 182.642-277.29 182.642-364.46 0-100.716-81.943-182.642-182.642-182.642-100.716 0-182.65 81.926-182.65 182.642 0 82.938 113.24 364.46 182.65 364.46zm-146.29-364.46c0-80.66 65.622-146.281 146.291-146.281 80.659 0 146.272 65.622 146.272 146.281 0 41.885-23.42 120.284-59.681 199.751-38.449 84.249-72.666 128.35-86.574 128.35-6.782-.471-39.362-31.794-84.304-128.559-37.083-79.837-62.004-160.035-62.004-199.542z"/><path d="M437.012 217.417c0-61.589-50.114-111.703-111.694-111.703-61.598 0-111.703 50.114-111.703 111.703 0 61.598 50.104 111.703 111.703 111.703 61.579 0 111.694-50.105 111.694-111.703zm-190.401 0c0-43.404 35.302-78.715 78.707-78.715 43.396 0 78.706 35.311 78.706 78.715 0 43.396-35.311 78.707-78.706 78.707-43.405 0-78.707-35.311-78.707-78.707zM755.526 746.316l-140.72-392.031a16.364 16.364 0 00-9.785-9.856l-100.896-36.993-1.32 4.431c-4.503 15.038-9.639 30.654-15.281 46.46l-.362.995L502.1 470.799l-75.253 23.936-.831 1.501c-6.022 10.752-12.036 20.698-17.995 29.786l-.325.479c-7.777 11.837-17.561 22.208-25.121 31.017l-3.11 1.221v163.615L266.92 686.699l16.132-112.743-1.085-1.528c-6.746-6.447-13.446-14.296-20.436-23.33l-6.239-8.229-19.279 144.5-149.971 42.103 66.797-186.015 81.799-32.716-2.55-4.368a662.38 662.38 0 01-11.8-21.06l-1.836-3.418-50.792 20.319 25.69-71.555-.732-1.609a1045.572 1045.572 0 01-13.935-32.228l-4.304-10.417L44.474 746.316a16.305 16.305 0 003.436 16.72 16.46 16.46 0 0012.008 5.218c1.483 0 2.966-.208 4.413-.605l186.322-52.312 137.718 42.853c.1.072.19.136.28.208 2.333 1.7 5.245 2.677 8.039 2.812 2.161.453 5.036.371 6.031.082 3.382-.217 6.284-1.193 8.608-2.885l.299-.217 137.718-42.853 186.341 52.312c5.787 1.618 12.315-.209 16.402-4.621a16.284 16.284 0 003.437-16.712zm-339.024-23.962V532.487l90.064-28.683 24.523 182.895-114.587 35.655zm102.199-374.643l67.82 24.867 45.104 125.656-96.23-25.916-16.694-124.607zm45.232 337.658l-23.818-177.813 105.012 28.268 68.805 191.647-149.999-42.102z"/></g></svg><svg viewBox="0 0 487.913 487.913" id="next" xmlns="http://www.w3.org/2000/svg"><path d="M22.987 468.187C10.291 468.187 0 457.896 0 445.202V42.949c0-12.695 10.291-22.988 22.987-22.988l373.519 206.875s17.239 17.238 0 34.477C379.268 278.552 22.987 468.187 22.987 468.187zM411.09 44.64c0-13.76 11.155-24.915 24.915-24.915h26.993c13.76 0 24.915 11.155 24.915 24.915v398.633c0 13.76-11.155 24.915-24.915 24.915h-26.993c-13.76 0-24.915-11.155-24.915-24.915V44.64z"/></svg><svg shape-rendering="geometricPrecision" text-rendering="geometricPrecision" image-rendering="optimizeQuality" fill-rule="evenodd" clip-rule="evenodd" viewBox="0 0 412 511.87" id="notes" xmlns="http://www.w3.org/2000/svg"><path fill-rule="nonzero" d="M35.7 32.95h33.54V11.18C69.24 5.01 74.25 0 80.43 0c6.17 0 11.18 5.01 11.18 11.18v21.77h49.21V11.18c0-6.17 5.01-11.18 11.19-11.18 6.17 0 11.18 5.01 11.18 11.18v21.77h49.21V11.18C212.4 5.01 217.41 0 223.59 0c6.17 0 11.18 5.01 11.18 11.18v21.77h49.21V11.18c0-6.17 5.01-11.18 11.19-11.18 6.17 0 11.18 5.01 11.18 11.18v21.77h34.55c9.83 0 18.76 4.03 25.21 10.49 5.36 5.35 9.04 12.4 10.15 20.23h.04c9.82 0 18.76 4.03 25.21 10.48C407.98 80.62 412 89.56 412 99.37v376.8c0 9.77-4.04 18.7-10.49 25.17-6.51 6.5-15.45 10.53-25.21 10.53H67.71c-9.81 0-18.75-4.02-25.22-10.49-6.14-6.14-10.09-14.53-10.45-23.8-8.36-.86-15.9-4.66-21.55-10.31C4.03 460.82 0 451.89 0 442.06V68.65c0-9.83 4.03-18.77 10.48-25.22 6.45-6.45 15.39-10.48 25.22-10.48zm340.9 51.06v358.05c0 9.8-4.03 18.74-10.49 25.2-6.47 6.47-15.41 10.5-25.21 10.5H52.43c.39 3.59 2.01 6.82 4.44 9.25 2.79 2.79 6.64 4.53 10.84 4.53H376.3c4.22 0 8.07-1.74 10.85-4.52 2.78-2.78 4.52-6.63 4.52-10.85V99.37c0-4.2-1.74-8.05-4.54-10.84a15.334 15.334 0 00-10.53-4.52zm-294 302.37c-5.74 0-10.4-4.86-10.4-10.85 0-5.99 4.66-10.85 10.4-10.85h214.78c5.74 0 10.41 4.86 10.41 10.85 0 5.99-4.67 10.85-10.41 10.85H82.6zm0-71.58c-5.74 0-10.4-4.86-10.4-10.85 0-5.99 4.66-10.85 10.4-10.85h214.78c5.74 0 10.41 4.86 10.41 10.85 0 5.99-4.67 10.85-10.41 10.85H82.6zm0-71.58c-5.74 0-10.4-4.86-10.4-10.85 0-5.99 4.66-10.85 10.4-10.85h214.78c5.74 0 10.41 4.86 10.41 10.85 0 5.99-4.67 10.85-10.41 10.85H82.6zm0-71.58c-5.74 0-10.4-4.86-10.4-10.85 0-5.99 4.66-10.85 10.4-10.85h214.78c5.74 0 10.41 4.86 10.41 10.85 0 5.99-4.67 10.85-10.41 10.85H82.6zM306.35 53.28v21.77c0 6.17-5.01 11.18-11.18 11.18-6.18 0-11.19-5.01-11.19-11.18V53.28h-49.21v21.77c0 6.17-5.01 11.18-11.18 11.18-6.18 0-11.19-5.01-11.19-11.18V53.28h-49.21v21.77c0 6.17-5.01 11.18-11.18 11.18-6.18 0-11.19-5.01-11.19-11.18V53.28H91.61v21.77c0 6.17-5.01 11.18-11.18 11.18-6.18 0-11.19-5.01-11.19-11.18V53.28H35.7c-4.22 0-8.07 1.75-10.85 4.52-2.77 2.78-4.52 6.63-4.52 10.85v373.41c0 4.2 1.75 8.05 4.53 10.84 2.8 2.79 6.65 4.53 10.84 4.53h305.2c4.19 0 8.03-1.75 10.83-4.54 2.79-2.8 4.54-6.65 4.54-10.83V68.65c0-4.19-1.74-8.04-4.53-10.84-2.79-2.78-6.64-4.53-10.84-4.53h-34.55z"/></svg><svg viewBox="0 0 30 31" id="pinter" xmlns="http://www.w3.org/2000/svg"><g clip-path="url(#asclip0_249_170)"><path d="M15.408.25C7.184.251 2.813 5.52 2.813 11.265c0 2.664 1.488 5.988 3.872 7.041.68.306.59-.067 1.175-2.305a.531.531 0 00-.128-.521c-3.407-3.941-.665-12.044 7.19-12.044 11.366 0 9.242 15.728 1.977 15.728-1.873 0-3.268-1.47-2.827-3.289.536-2.166 1.583-4.495 1.583-6.056 0-3.935-5.862-3.352-5.862 1.862 0 1.612.57 2.699.57 2.699S8.476 22 8.126 23.424c-.592 2.41.08 6.311.139 6.647.036.185.244.244.36.091.186-.243 2.466-3.496 3.105-5.847.232-.856 1.186-4.331 1.186-4.331.629 1.135 2.441 2.085 4.373 2.085 5.745 0 9.897-5.05 9.897-11.316C27.166 4.744 22.025.25 15.408.25z"/></g><defs><clipPath id="asclip0_249_170"><path transform="translate(0 .25)" d="M0 0h30v30H0z"/></clipPath></defs></svg><svg viewBox="0 0 415.346 415.346" id="play" xmlns="http://www.w3.org/2000/svg"><path d="M41.712 415.346c-11.763 0-21.3-9.537-21.3-21.3V21.299C20.412 9.536 29.949 0 41.712 0l346.122 191.697s15.975 15.975 0 31.951C371.859 239.622 41.712 415.346 41.712 415.346z"/></svg><svg shape-rendering="geometricPrecision" text-rendering="geometricPrecision" image-rendering="optimizeQuality" fill-rule="evenodd" clip-rule="evenodd" viewBox="0 0 512 395.92" id="plus" xmlns="http://www.w3.org/2000/svg"><path d="M409.19 190.32c56.77 0 102.81 46.03 102.81 102.79 0 56.77-46.04 102.81-102.81 102.81-56.75 0-102.79-46.04-102.79-102.81 0-56.76 46.04-102.79 102.79-102.79zM30.98 0h441.51c17.03 0 30.93 13.9 30.93 30.93v165.61a135.92 135.92 0 00-21.89-17.36v-26.67H21.94v170.91c0 7.16 5.91 13.06 13.06 13.06h246.33c2.6 7.63 5.87 14.95 9.73 21.9H30.98C13.95 358.38 0 344.49 0 327.45V30.98C0 13.9 13.9 0 30.98 0zm47.1 290.53c-7.12 0-12.89-5.77-12.89-12.89 0-7.11 5.77-12.89 12.89-12.89h117.28c7.12 0 12.89 5.78 12.89 12.89 0 7.12-5.77 12.89-12.89 12.89H78.08zm0-61.87c-7.12 0-12.89-5.78-12.89-12.89 0-7.12 5.77-12.89 12.89-12.89h35.08c7.12 0 12.89 5.77 12.89 12.89 0 7.11-5.77 12.89-12.89 12.89H78.08zm74.1 0c-7.12 0-12.89-5.78-12.89-12.89 0-7.12 5.77-12.89 12.89-12.89h25.55c7.12 0 12.89 5.77 12.89 12.89 0 7.11-5.77 12.89-12.89 12.89h-25.55zm66.7 0c-7.12 0-12.89-5.78-12.89-12.89 0-7.12 5.77-12.89 12.89-12.89h25.42c7.11 0 12.89 5.77 12.89 12.89 0 7.11-5.78 12.89-12.89 12.89h-25.42zM21.94 69.15h459.54V35c0-7.15-5.91-13.06-13.06-13.06H35c-7.15 0-13.06 5.91-13.06 13.06v34.15zM463.33 282.7v20.83a7.755 7.755 0 01-7.73 7.73h-28.26v28.26c-.01 4.26-3.47 7.72-7.73 7.72h-20.83c-4.26-.01-7.71-3.47-7.72-7.72v-28.26h-28.27c-4.26-.02-7.71-3.48-7.72-7.73V282.7c.02-4.26 3.47-7.7 7.72-7.72h28.27v-28.27c.02-4.26 3.47-7.7 7.72-7.72h20.83c4.26.01 7.71 3.45 7.73 7.72v28.27h28.26c4.25.01 7.71 3.45 7.73 7.72z"/></svg><svg data-name="Layer 1" viewBox="0 0 122.88 106.69" id="pp" xmlns="http://www.w3.org/2000/svg"><path d="M58.61 43.44c.73.38 1.46.72 2.18 1s1.68.68 2.48 1c5.09 2 9.27 3.62 10.67 11.4a55.81 55.81 0 01.39 7.16h7.09v42.66H61.1V64h3.53c0-1.75-.09-3.61-.27-5.05a5.68 5.68 0 00-.17-.84 4.09 4.09 0 00-.31-.75l-.08-.15c-.28-.53-.55-1-.76-1.1-.38-.14-.87-.3-1.43-.47s-1.39-.4-2.15-.6l-2.52-.61-2.22-.5c-1.1 4.73-2.52 10.16-4.15 15.42-.7 2.28-1.45 4.53-2.22 6.68h3.45v30.65H31.45V76h6.48c1-3.35 2-6.75 3-10.17 1.5-5.37 2.88-10.79 4.11-16.1-.35-.38-.69-.79-1-1.21a12.92 12.92 0 01-1-1.66 9 9 0 01-.76-2.09 7.14 7.14 0 01-.1-2.32l1.63-12.68a4 4 0 00-1.75.41 5.48 5.48 0 00-1.41 1.13c-.46.49-.92 1.08-1.41 1.71-.39.49-.79 1-1.29 1.6q-2.74 3.18-5.5 6.34a1.12 1.12 0 01-.76.38 1.08 1.08 0 01-.79-.27c-1.73-1.55-4-3.47-5.54-5.11a1.07 1.07 0 01-.31-.72 1.12 1.12 0 01.29-.78c1.81-1.89 3.71-4.22 5.42-6.26 1-1.23 1.89-2.35 2.82-3.33a16.33 16.33 0 013-2.6 13.1 13.1 0 013.88-1.72 21.39 21.39 0 015.16-.66h.08c1.43-.07 3.11 0 4.5 0h1.74c7 0 10.52 3.44 13.23 6.12.57.56 1.1 1.08 1.58 1.49a5.83 5.83 0 001.4.91c.25.08.86-.23 1.55-.57a15 15 0 011.62-.72c2.36-1.08 4.78-2.39 7.13-3.36a3.41 3.41 0 011.55-.14 4.46 4.46 0 011.59.47 5.06 5.06 0 011.85 1.59 4.84 4.84 0 01.6 1.15 5 5 0 01-.15 3.56 7.47 7.47 0 01-1.36 2.14 1.12 1.12 0 01-.2.18.86.86 0 01-.19.11C80 33.92 77.81 35 75.61 36A25.53 25.53 0 0171 37.64a13.75 13.75 0 01-5.52 0h-.17a14.5 14.5 0 01-5.76-3.41l-.93 9.24zM0 106.69V88.05h20.32v18.64zm94.85 0V53.3h-4.71a3 3 0 01-2.53-1.19c-1.32-2 .49-4 1.75-5.34C92.9 42.86 101 32.16 102.73 30.1a2.92 2.92 0 014.57 0c1.81 2.13 10.32 13.23 13.71 17 1.18 1.32 2.63 3.12 1.41 5a3 3 0 01-2.53 1.19h-4.71v53.39zM51 .67A8.65 8.65 0 0154.34 0a8.84 8.84 0 013.34.66 8.65 8.65 0 012.83 1.88 8.53 8.53 0 011.89 2.82 8.74 8.74 0 01.68 3.33 8.84 8.84 0 01-.66 3.31 8.72 8.72 0 01-16.78-3.26 8.75 8.75 0 012.55-6.18A8.68 8.68 0 0151 .67z"/></svg><svg viewBox="0 0 487.91 487.91" id="prev" xmlns="http://www.w3.org/2000/svg"><path d="M464.923 19.725c12.696 0 22.987 10.29 22.987 22.985v402.253c0 12.694-10.291 22.987-22.987 22.987L91.403 261.075s-17.239-17.238 0-34.477c17.239-17.24 373.52-206.873 373.52-206.873zM76.821 443.271c0 13.76-11.155 24.915-24.915 24.915H24.915C11.155 468.186 0 457.031 0 443.271V44.639c0-13.761 11.155-24.915 24.915-24.915h26.991c13.76 0 24.915 11.155 24.915 24.915v398.632z"/></svg><svg viewBox="0 0 492.189 492.189" id="repeat" xmlns="http://www.w3.org/2000/svg"><path d="M10.998 256.958c13.017 3.232 34.841-55.978 34.841-55.978 11.823-51.125 43.541-97.591 92.041-126.807 34.119-20.552 71.9-29.776 108.965-28.76v-.261c63.951-1.163 126.842 28.274 166.339 82.772l-31.513 18.946a6.127 6.127 0 00-2.096 8.407s92.224 55.336 98.526 56.909c6.305 1.572 7.875-4.732 7.875-4.732l-4.032-113.713a6.127 6.127 0 00-8.404-2.096l-22.814 13.715C402.713 36.912 324.803-.089 245.604 1.482v.243C201.252.942 156.149 12.194 115.35 36.771 53.016 74.322 13.477 135.275 1.151 201.601c-1.825 3.675-3.17 52.129 9.847 55.357zM481.227 235.453c-13.012-3.244-34.892 55.943-34.892 55.943-11.873 51.116-43.638 97.549-92.164 126.721-34.137 20.52-71.928 29.709-108.993 28.654v.268c-63.818 1.098-126.562-28.264-166.035-82.619l31.498-18.974a6.128 6.128 0 002.088-8.409s-92.275-55.248-98.58-56.815c-6.307-1.565-7.869 4.74-7.869 4.74l4.14 113.707a6.126 6.126 0 008.407 2.088l22.799-13.737c48.079 68.401 126.024 105.33 205.22 103.682v-.239c44.2.742 89.14-10.475 129.82-34.926 62.372-37.489 101.969-98.402 114.36-164.72 1.826-3.671 3.212-52.123-9.799-55.364z"/></svg><svg shape-rendering="geometricPrecision" text-rendering="geometricPrecision" image-rendering="optimizeQuality" fill-rule="evenodd" clip-rule="evenodd" viewBox="0 0 512 426.05" id="sale" xmlns="http://www.w3.org/2000/svg"><path fill-rule="nonzero" d="M96.46 186.61c-5.81 4.52-14.19 3.47-18.71-2.34-4.52-5.82-3.47-14.2 2.34-18.72l121.93-94.69c-1.3-4.74-2-9.73-2-14.88 0-15.45 6.27-29.46 16.4-39.58C226.55 6.26 240.54 0 256 0c15.46 0 29.45 6.27 39.58 16.4 10.13 10.12 16.4 24.13 16.4 39.58 0 5.15-.69 10.14-2 14.88l121.93 94.69c5.81 4.52 6.86 12.9 2.34 18.72-4.52 5.81-12.9 6.86-18.71 2.34L296.76 94.36c-.39.41-.78.81-1.18 1.21-10.13 10.13-24.12 16.39-39.58 16.39-15.46 0-29.45-6.27-39.58-16.39-.4-.4-.79-.8-1.17-1.21L96.46 186.61zM234.83 45.38l-.05.08-.03.07-.07.15-.02.03-.06.12-.06.14-.01.01-.07.15-.04.11-.03.05-.06.15-.03.06-.04.09-.07.16-.01.01-.05.14-.06.13-.01.03-.06.15-.03.09-.03.07-.06.16-.02.04-.04.12-.06.15-.06.16-.04.11-.01.05-.06.16-.02.07-.03.09-.06.16v.02l-.05.15-.04.13-.01.03-.05.16-.03.09-.02.07-.05.17-.01.04-.03.12-.05.16v.01l-.04.16-.03.11-.01.06-.05.16-.01.07-.03.1-.03.16-.01.02-.03.15-.03.14-.01.03-.04.17-.03.17-.03.16-.01.05-.03.12-.03.17-.03.17-.02.12v.05l-.03.18-.01.07-.02.1-.02.17-.01.02-.02.15-.02.15v.02l-.02.18-.01.09-.01.08-.02.17v.05l-.02.13-.01.17-.02.18-.01.12v.05l-.01.18-.01.07-.01.1v.18l-.01.02v.16l-.01.15v.02l-.01.18v.41l-.01.12v.18c0 6.54 2.65 12.46 6.94 16.75l.02.02.03.03.03.02.03.03.02.03.03.02.03.03.01.02.01.01.03.02.03.03.02.02.03.03.03.03.02.02.03.03h.01l.02.02.02.03.03.02.03.03.03.03.02.02.03.03.02.02h.01l.02.03.03.02.03.03.03.02.03.03.02.02.03.03.01.01.02.02.03.02.02.02.03.03.03.03.03.02.03.03.02.02.03.02.03.03.03.02.03.03.02.02.03.03.03.02.02.02.01.01.03.02.02.03.03.02.06.05.03.02.03.03.03.02.02.03.03.02.03.02.03.03.03.02.03.03.02.01.01.01.03.02.02.03.03.02c4.08 3.33 9.29 5.33 14.97 5.33 5.68 0 10.89-2 14.97-5.33l.03-.02.03-.03.03-.02v-.01l.03-.01.02-.03.03-.02.03-.03.03-.02.03-.02.03-.03.05-.05.03-.02.03-.02.03-.03.06-.05.02-.02.09-.08.03-.02.03-.03.02-.02.09-.07.03-.03.02-.02.03-.03.1-.09.01-.01.06-.05.03-.03.02-.02.03-.03.03-.02.03-.03.02-.02.03-.03.03-.02.03-.03.02-.03.03-.02.03-.03.02-.02.03-.03.03-.02.03-.03.02-.03.03-.02.03-.03.02-.02.01-.01.02-.02.03-.03.02-.02.03-.03.03-.03.02-.02.03-.03.03-.02a23.643 23.643 0 006.93-16.75v-.53l-.01-.08v-.1l-.01-.18v-.17l-.01-.16v-.02l-.01-.18-.01-.1v-.07l-.01-.18-.01-.05-.01-.12-.01-.18-.02-.17-.01-.13-.01-.05-.02-.17v-.08l-.02-.09-.02-.18v-.02l-.02-.15-.02-.15v-.02l-.03-.17-.01-.1-.01-.07-.03-.18-.01-.05-.02-.12-.03-.17-.03-.17-.02-.12-.01-.04-.04-.17-.03-.17-.03-.17-.01-.03-.03-.14-.04-.15v-.02l-.04-.16-.02-.1-.1-.4-.05-.16v-.01l-.04-.16-.04-.12-.01-.04-.05-.17-.02-.07-.03-.09-.05-.16v-.03l-.05-.13-.05-.16-.05-.17-.06-.16-.05-.16-.02-.05-.04-.1-.05-.16-.01-.01-.05-.15-.05-.12-.01-.04-.06-.16-.07-.15-.06-.16-.06-.16-.06-.14-.01-.01-.06-.16-.21-.46-.07-.15v-.01l-.29-.59a23.697 23.697 0 00-4.43-6.14A23.61 23.61 0 00256 32.3c-6.54 0-12.46 2.65-16.74 6.94a23.465 23.465 0 00-4.43 6.14z"/><path fill="#D10000" fill-rule="nonzero" d="M38.01 168.3h435.98c10.42 0 19.92 4.27 26.81 11.15l.05.05c6.89 6.92 11.15 16.41 11.15 26.81v181.72c0 10.42-4.27 19.92-11.15 26.82l-.05.04c-6.91 6.9-16.4 11.16-26.81 11.16H37.95c-10.41 0-19.88-4.26-26.74-11.12C4.34 408.07.07 398.58.05 388.13L0 206.31c0-10.46 4.28-19.98 11.15-26.86 6.89-6.88 16.4-11.15 26.86-11.15z"/><path fill="red" d="M39.98 181.71h432.05c14.62 0 26.57 11.95 26.57 26.57v177.79c0 14.63-11.95 26.57-26.57 26.57H39.98c-14.63.04-26.57-11.91-26.57-26.53V208.28c0-14.62 11.94-26.57 26.57-26.57z"/><path fill="#fff" fill-rule="nonzero" d="M74.06 348.6l4.78-24.21c10.46 2.61 19.87 3.92 28.22 3.92 8.36 0 15.1-.33 20.22-1.02v-12.46l-15.36-1.36c-13.87-1.25-23.39-4.58-28.56-9.98-5.18-5.4-7.76-13.39-7.76-23.97 0-14.55 3.15-24.56 9.46-30.01 6.31-5.46 17.03-8.19 32.15-8.19 15.13 0 28.77 1.42 40.93 4.26l-4.26 23.36c-10.57-1.71-19.04-2.56-25.41-2.56-6.37 0-11.77.28-16.2.85v12.29l12.27 1.2c14.9 1.48 25.19 5.03 30.88 10.66 5.68 5.63 8.52 13.44 8.52 23.45 0 7.17-.96 13.22-2.9 18.17-1.92 4.94-4.23 8.69-6.9 11.25-2.67 2.56-6.46 4.52-11.34 5.88-4.9 1.37-9.18 2.19-12.88 2.48-3.7.28-8.61.42-14.75.42-14.79 0-28.48-1.47-41.11-4.43zm129.37 1.88h-35.99l27.63-106.6h52.71l27.62 106.6h-35.98l-3.93-16.89h-28.14l-3.92 16.89zm14.6-73.86l-9.46 29.85h25.53l-9.28-29.85h-6.79zm133.36 73.86h-68.22v-106.6h34.11v79.31h34.11v27.29zm78.88-40.26h-34.11v17.88h41.78v22.38h-75.89v-106.6h75.04l-4.26 22.37h-36.67v19.25h34.11v24.72z"/></svg><svg data-name="Layer 1" viewBox="0 0 122.88 107.54" id="shop" xmlns="http://www.w3.org/2000/svg"><path d="M3.93 7.86a3.93 3.93 0 010-7.86H14.54a18.28 18.28 0 019.56 2.49 14.69 14.69 0 016.41 9.1c.32 1.41.66 2.82 1 4.23H119a3.92 3.92 0 013.93 3.92 4 4 0 01-.19 1.22l-10.22 41.12a3.92 3.92 0 01-3.8 3H44.66c1.44 5.21 2.76 8 4.7 9.34 2.27 1.52 6.31 1.63 13 1.52h45.24a3.93 3.93 0 110 7.86H62.46c-8.27.15-13.38-.09-17.46-2.84s-6.36-7.55-8.57-16.3l-13.51-51a7.19 7.19 0 00-3-4.49 10.8 10.8 0 00-5.51-1.3H3.93zM96 88.34a9.6 9.6 0 11-9.6 9.6 9.6 9.6 0 019.6-9.6zm-42.1 0a9.6 9.6 0 11-9.6 9.6 9.6 9.6 0 019.6-9.6zM78 23.67V38h32.45l3.53-14.28zm0 22.14v11.41h27.69l2.82-11.41zm-7.89 11.41V45.81H39.63q1.57 5.7 3 11.41zm0-19.27V23.67H33.54c1.26 4.76 2.58 9.52 3.91 14.28z"/></svg><svg shape-rendering="geometricPrecision" text-rendering="geometricPrecision" image-rendering="optimizeQuality" fill-rule="evenodd" clip-rule="evenodd" viewBox="0 0 448 512.23" id="star" xmlns="http://www.w3.org/2000/svg"><path fill-rule="nonzero" d="M235.07 18.99l97.56 167.47L448 127.75l-74.79 128.37L448 384.48l-115.37-58.71L224 512.23 115.37 325.77 0 384.48l74.79-128.36L0 127.75l115.37 58.71L224 0l11.07 18.99zm110.48 189.64l12.87 22.09 23.7-40.7-36.57 18.61zm36.57 113.58l-23.7-40.69-12.87 22.08 36.57 18.61zm-38.5-66.09l-20.9-35.87-70.48 35.87 70.48 35.86 20.9-35.86zm-33.82-58.04L224 50.8l-85.8 147.28 85.8 43.66 85.8-43.66zm0 116.07L224 270.49l-85.8 43.66L224 461.43l85.8-147.28zm-114.04-58.03l-70.48-35.87-20.89 35.87 20.89 35.86 70.48-35.86zm-93.31-47.49l-36.57-18.61 23.71 40.7 12.86-22.09zm0 94.97l-12.86-22.08-23.71 40.7 36.57-18.62z"/></svg><svg viewBox="0 0 122.88 94.58" id="step1" xmlns="http://www.w3.org/2000/svg"><path d="M6.52 91.32a3.26 3.26 0 01-6.52 0V73.45c0-.11.01-.22.02-.32.05-1.86.64-3.37 1.75-4.55 1.16-1.23 2.74-1.93 4.72-2.14.17-.02.34-.02.51-.01l22.24.04v-17.4c0-.11.01-.22.02-.33.05-1.17.41-2.17 1.1-2.98.85-1 2-1.52 3.44-1.55h.09v-.01h24.66V27.61c0-.17.01-.34.04-.51.14-1.42.7-2.53 1.59-3.38.91-.87 2.04-1.33 3.33-1.49.13-.02.26-.02.38-.02h25.08c0-5.09.28-10.99 0-15.99 0-.95.32-2.38 1.11-3.58.9-1.37 2.34-2.5 4.5-2.63l.35-.01h24.69a3.26 3.26 0 010 6.52H95.49v18.95c0 1.8-1.46 3.26-3.26 3.26H65.06v18.73c0 1.8-1.46 3.26-3.26 3.26H35.76v19h-.01a3.25 3.25 0 01-3.25 3.25l-25.47-.05c-.31.04-.49.08-.53.11v.09c.01.11.02.21.02.32v17.88z"/></svg><svg version="1.1" id="step2" x="0" y="0" viewBox="0 0 122.88 82.64" xml:space="preserve" xmlns="http://www.w3.org/2000/svg"><style>.bcst0{fill-rule:evenodd;clip-rule:evenodd}</style><path class="bcst0" d="M94.83 0h26.1c1.07 0 1.95.88 1.95 1.95V82.63H0V65.86c-.02-2.16 1.13-3.31 3.34-3.54l27.03.04V42.99c-.02-.99.41-1.51 1.3-1.52H60.8V22.85c.07-1.3.81-1.87 1.96-2.01h29.53V2.88c-.05-.87.58-2.88 2.54-2.88z"/></svg><svg viewBox="0 0 30 31" id="telega" xmlns="http://www.w3.org/2000/svg"><g clip-path="url(#bdclip0_249_168)"><path d="M11.771 19.2l-.496 6.98c.71 0 1.018-.305 1.386-.67l3.33-3.182 6.897 5.051c1.265.705 2.156.334 2.497-1.164L29.913 5h.001c.401-1.87-.676-2.602-1.909-2.143L1.393 13.045c-1.817.705-1.789 1.718-.309 2.177l6.804 2.116 15.804-9.889c.743-.492 1.42-.22.863.273L11.771 19.2z"/></g><defs><clipPath id="bdclip0_249_168"><path transform="translate(0 .225)" d="M0 0h30v30H0z"/></clipPath></defs></svg><svg version="1.1" id="ticket" x="0" y="0" viewBox="0 0 122.88 122.88" xml:space="preserve" xmlns="http://www.w3.org/2000/svg"><style>.best0{fill-rule:evenodd;clip-rule:evenodd}</style><path class="best0" d="M1.04 79.96L64.7 16.3c.55.07 1.13-.1 1.55-.52.42-.42.6-1 .52-1.55L79.96 1.04a3.58 3.58 0 015.05 0l10.43 10.44a11.605 11.605 0 001.7 14.26c3.87 3.87 9.79 4.43 14.26 1.7l10.43 10.43a3.58 3.58 0 010 5.05l-13.19 13.19c-.55-.07-1.12.1-1.55.52-.42.42-.6 1-.52 1.55l-63.65 63.65a3.58 3.58 0 01-5.05 0L27.5 111.47c2.98-4.51 2.48-10.63-1.48-14.6-3.97-3.97-10.09-4.46-14.6-1.48L1.04 85.01a3.58 3.58 0 010-5.05zm101.23-28.15c.72-.72 1.89-.72 2.61 0s.72 1.89 0 2.61-1.89.72-2.61 0-.72-1.89 0-2.61zm-4.83-4.83c.72-.72 1.89-.72 2.61 0s.72 1.89 0 2.61-1.89.72-2.61 0-.72-1.89 0-2.61zm-4.83-4.83c.72-.72 1.89-.72 2.61 0s.72 1.89 0 2.61-1.89.72-2.61 0-.72-1.89 0-2.61zm-4.83-4.83c.72-.72 1.89-.72 2.61 0s.72 1.89 0 2.61-1.89.72-2.61 0-.72-1.89 0-2.61zm-4.83-4.83c.72-.72 1.89-.72 2.61 0s.72 1.89 0 2.61-1.89.72-2.61 0-.72-1.89 0-2.61zm-4.83-4.83c.72-.72 1.89-.72 2.61 0s.72 1.89 0 2.61-1.89.72-2.61 0-.72-1.89 0-2.61zm-4.83-4.83c.72-.72 1.89-.72 2.61 0s.72 1.89 0 2.61-1.89.72-2.61 0-.72-1.89 0-2.61zM68.46 18c.72-.72 1.89-.72 2.61 0s.72 1.89 0 2.61-1.89.72-2.61 0-.72-1.89 0-2.61zM25.45 74.91l39.38-39.38a4.177 4.177 0 015.89 0l18.1 18.1a4.177 4.177 0 010 5.89L49.44 98.9a4.177 4.177 0 01-5.89 0l-18.1-18.1a4.177 4.177 0 010-5.89z"/></svg><svg viewBox="0 0 122.88 122.88" id="ticket2" xmlns="http://www.w3.org/2000/svg"><path d="M1.48 78.38l76.9-76.9C79.36.49 80.65 0 81.95 0c1.29 0 2.59.49 3.57 1.48l10.17 10.17c.55.55.61 1.4.17 2.01a9.765 9.765 0 00-1.3 6.16 9.704 9.704 0 002.78 5.72 9.617 9.617 0 005.72 2.78c2.14.26 4.35-.2 6.24-1.36.63-.38 1.42-.27 1.92.23l10.17 10.17c.98.98 1.48 2.28 1.48 3.57s-.49 2.59-1.48 3.57l-76.9 76.9c-.98.98-2.28 1.48-3.57 1.48a5.01 5.01 0 01-3.57-1.48l-10.1-10.1a1.57 1.57 0 01-.15-2.05 9.778 9.778 0 001.51-6.28 9.651 9.651 0 00-2.81-5.89 9.706 9.706 0 00-5.89-2.81c-2.2-.22-4.45.3-6.36 1.56-.63.42-1.46.32-1.97-.2L1.48 85.52A5.027 5.027 0 010 81.95c0-1.3.49-2.59 1.48-3.57zM80.6 3.7L3.7 80.6c-.37.37-.55.86-.55 1.35 0 .49.18.98.55 1.35l9.25 9.25c2.26-1.18 4.8-1.65 7.28-1.4 2.85.29 5.63 1.52 7.8 3.7 2.18 2.18 3.41 4.95 3.7 7.8.25 2.48-.21 5.02-1.4 7.28l9.25 9.25c.37.37.86.55 1.35.55.49 0 .98-.18 1.35-.55l76.9-76.9c.37-.37.55-.86.55-1.35 0-.49-.18-.98-.55-1.35l-9.34-9.34a12.858 12.858 0 01-7.15 1.2 12.874 12.874 0 01-11.26-11.26c-.29-2.42.11-4.91 1.2-7.15L83.3 3.7c-.37-.37-.86-.55-1.35-.55-.49-.01-.98.18-1.35.55zM25.26 73.45l38.37-38.37a5.625 5.625 0 013.98-1.64c1.45 0 2.89.55 3.98 1.64l17.64 17.64a5.6 5.6 0 011.64 3.98c0 1.44-.55 2.89-1.64 3.98L50.86 99.05a5.6 5.6 0 01-3.98 1.64c-1.44 0-2.88-.55-3.98-1.64L25.26 81.42c-1.1-1.1-1.64-2.54-1.64-3.98s.55-2.89 1.64-3.99zm40.6-36.15L27.48 75.67c-.48.48-.72 1.12-.72 1.76 0 .64.24 1.28.72 1.76l17.64 17.64c.48.48 1.12.72 1.76.72.64 0 1.28-.24 1.76-.72l38.37-38.37c.48-.48.72-1.12.72-1.76 0-.64-.24-1.28-.72-1.76L69.38 37.3c-.49-.49-1.12-.73-1.76-.73-.64 0-1.28.25-1.76.73z"/></svg><svg shape-rendering="geometricPrecision" text-rendering="geometricPrecision" image-rendering="optimizeQuality" fill-rule="evenodd" clip-rule="evenodd" viewBox="0 0 512 512.01" id="ticket3" xmlns="http://www.w3.org/2000/svg"><path d="M6.61 324.74L324.73 6.62l.5-.34c8.88-8.52 23.06-8.34 31.77.33l41.78 41.79c1.37 1.36 2.17 3.18 2.33 5.05.16 1.84-.28 3.79-1.33 5.43a38.447 38.447 0 00-5.22 12.06c-6.81 28.23 18.61 53.34 46.36 46.68 4.12-.98 8.17-2.69 11.85-5.06a8.26 8.26 0 015.52-1.61c1.94.14 3.85.96 5.31 2.42l41.79 41.79c8.81 8.81 8.81 23.31 0 32.12L187.27 505.4c-8.82 8.82-23.31 8.82-32.13 0l-42.09-42.09c-1.29-1.28-2.09-3.04-2.29-4.85-.19-1.76.15-3.63 1.11-5.26 2.3-3.67 3.91-7.66 4.79-11.77 5.88-27.01-18.04-51.76-45.62-46.01-4.08.86-8.08 2.4-11.77 4.57-1.65 1.04-3.62 1.51-5.49 1.34a8.144 8.144 0 01-5.08-2.38L6.61 356.86c-8.77-8.76-8.85-23.27 0-32.12zm432.14-98.12c.66.66 1.35 1.18 2.06 1.56L228.34 440.64l-.35-.54c-.26-.32-.5-.62-.8-.92l-11.84-11.84c-7.14-7.14-18.73 2.38-12.64 10.91.27.33.49.62.8.93l11.84 11.83c.46.46.95.86 1.43 1.18l-41.35 41.36c-2.32 2.32-6.43 2.4-8.75 0l-37.7-37.69c1.99-4.43 3.39-9.08 4.17-13.83 6.11-37.03-25.86-69.67-63.48-63.48-4.73.78-9.39 2.19-13.82 4.17l-37.71-37.7c-2.19-2.2-2.58-6.86.16-8.6l41.56-41.56c.23.45.49.91.82 1.36.26.33.49.62.81.92l11.83 11.84c7.14 7.15 18.74-2.37 12.64-10.91-.26-.32-.49-.61-.8-.93l-11.84-11.83a8.76 8.76 0 00-2.25-1.66L283.6 71.12l.48.71c.27.33.5.62.8.93l11.84 11.83c7.14 7.14 18.74-2.37 12.63-10.91a8.35 8.35 0 00-.8-.92l-11.83-11.84c-.53-.52-1.07-.94-1.62-1.3l41.32-41.32c2.35-2.35 6.39-2.35 8.74 0l37.36 37.37a55.067 55.067 0 00-4.69 13.94c-7.4 38.53 26.4 71.72 64.42 64.41 4.79-.92 9.5-2.5 13.94-4.69l37.37 37.36c2.34 2.34 2.34 6.4-.01 8.75l-41.44 41.44c-.21-.39-.45-.77-.72-1.17-.26-.32-.49-.62-.81-.92l-11.83-11.84c-7.14-7.14-18.73 2.37-12.63 10.91.25.33.49.61.8.93l11.83 11.83zM296.6 135.3l81.9 81.93c10.26 10.82 10.1 28.12-.47 38.69L255.99 377.96c-10.73 10.73-28.47 10.73-39.2 0l-81.43-81.43c-10.73-10.73-10.71-28.41 0-39.16l122.05-122.08c10.73-10.72 28.46-10.71 39.19.01zm70.03 92.83l-81.43-81.42c-4.51-4.51-11.87-4.52-16.39-.01L146.77 268.74c-4.46 4.45-4.45 11.94 0 16.39l81.43 81.43c4.45 4.45 11.93 4.45 16.38 0l122.05-122.05c4.35-4.34 4.46-11.58.3-16.09l-.3-.29zM179.84 415.51c7.14 7.14 18.74-2.38 12.65-10.91-.27-.34-.5-.62-.8-.93l-11.85-11.84c-7.14-7.14-18.74 2.37-12.63 10.92.25.32.49.61.8.92l11.83 11.84zm-35.5-35.52c7.14 7.16 18.74-2.36 12.63-10.9-.25-.33-.48-.62-.8-.93l-11.83-11.83c-7.14-7.15-18.74 2.37-12.65 10.91.27.32.5.61.81.92l11.84 11.83zm-35.51-35.5c7.14 7.14 18.73-2.37 12.64-10.91-.27-.33-.5-.62-.8-.92l-11.84-11.85c-7.15-7.14-18.74 2.38-12.64 10.92.27.33.5.61.8.93l11.84 11.83zm294.42-153.38c7.14 7.15 18.73-2.36 12.63-10.9a8.64 8.64 0 00-.8-.92l-11.83-11.85c-7.16-7.14-18.74 2.38-12.65 10.91.27.32.5.62.81.93l11.84 11.83zm-35.52-35.5c7.15 7.14 18.74-2.38 12.64-10.91-.26-.33-.49-.61-.8-.93l-11.84-11.83c-7.14-7.14-18.73 2.36-12.63 10.91.27.32.49.61.8.92l11.83 11.84zm-35.5-35.51c7.14 7.15 18.73-2.37 12.64-10.91-.27-.33-.5-.62-.8-.92l-11.84-11.84c-7.14-7.15-18.74 2.37-12.65 10.9.27.34.5.62.82.93l11.83 11.84z"/></svg><svg fill="none" stroke="currentColor" stroke-width="2" stroke-linecap="round" stroke-linejoin="round" viewBox="0 0 24 24" id="time1" xmlns="http://www.w3.org/2000/svg"><circle cx="12" cy="12" r="10"/><path d="M12 6v6l4 2"/></svg><svg viewBox="0 0 30 19" id="vk" xmlns="http://www.w3.org/2000/svg"><path d="M24.894 10.927c-.485-.613-.346-.885 0-1.433.006-.006 4.01-5.539 4.422-7.415l.003-.001c.205-.684 0-1.186-.991-1.186h-3.28c-.835 0-1.22.43-1.427.913 0 0-1.67 3.998-4.032 6.59-.763.748-1.115.988-1.531.988-.206 0-.524-.24-.524-.924V2.078c0-.82-.234-1.186-.925-1.186H11.45c-.524 0-.835.382-.835.738 0 .778 1.181.957 1.304 3.144V9.52c0 1.04-.189 1.232-.607 1.232-1.116 0-3.822-4.014-5.426-8.608-.323-.891-.64-1.251-1.48-1.251H1.124C.189.893 0 1.324 0 1.807c0 .852 1.115 5.09 5.185 10.69 2.713 3.823 6.532 5.895 10.008 5.895 2.088 0 2.343-.46 2.343-1.252 0-3.652-.189-3.997.858-3.997.485 0 1.32.24 3.27 2.084 2.228 2.186 2.595 3.165 3.842 3.165h3.28c.935 0 1.409-.46 1.136-1.368-.623-1.909-4.838-5.835-5.028-6.097z"/></svg><svg data-name="Layer 1" viewBox="0 0 122.88 122.88" id="x" xmlns="http://www.w3.org/2000/svg"><path d="M21.47 0h81.58a19.79 19.79 0 0114 5.82l.32.35a19.79 19.79 0 015.5 13.66v83.22a19.91 19.91 0 01-19.83 19.83H19.83A19.91 19.91 0 010 103.05V21.47A21.56 21.56 0 0121.47 0zm33.87 33.8l6.1 14.78h.89l6.1-14.78h19.19L75.33 60.51l12.29 28.57H68l-6.65-15.92h-.79L54 89.08H35.27l12-28-12-27.24zm47.71-23.69H21.47a11.37 11.37 0 00-11.36 11.36v81.58a9.77 9.77 0 009.72 9.72h83.22a9.73 9.73 0 009.72-9.72V19.83a9.73 9.73 0 00-2.62-6.64l-.24-.22a9.69 9.69 0 00-6.86-2.86z"/></svg><svg data-name="Layer 1" viewBox="0 0 122.88 122.88" id="y" xmlns="http://www.w3.org/2000/svg"><path d="M21.47 0h81.58a19.79 19.79 0 0114 5.82l.32.35a19.79 19.79 0 015.5 13.66v83.22a19.91 19.91 0 01-19.83 19.83H19.83A19.91 19.91 0 010 103.05V21.47A21.56 21.56 0 0121.47 0zm34.76 32.84l4.85 20.42h.63l4.95-20.42h19.55L70.28 74v16H52.6V74L36.68 32.84zm46.82-22.73H21.47a11.37 11.37 0 00-11.36 11.36v81.58a9.77 9.77 0 009.72 9.72h83.22a9.73 9.73 0 009.72-9.72V19.83a9.73 9.73 0 00-2.62-6.64l-.24-.22a9.69 9.69 0 00-6.86-2.86z"/></svg></svg>